<mxfile host="app.diagrams.net" agent="Mozilla/5.0 (X11; Linux x86_64) AppleWebKit/537.36 (KHTML, like Gecko) Chrome/136.0.0.0 Safari/537.36" version="27.0.6">
  <diagram name="PÃ¡gina-1" id="q8qUG1kUL-uQ1IM9VgKv">
    <mxGraphModel dx="1454" dy="228" grid="0" gridSize="10" guides="1" tooltips="1" connect="1" arrows="1" fold="1" page="1" pageScale="1" pageWidth="827" pageHeight="1169" math="1" shadow="0">
      <root>
        <mxCell id="0" />
        <mxCell id="1" parent="0" />
        <mxCell id="MM3cToGARGYwKxWfsR-j-1" value="&lt;font&gt;$$\sum$$&lt;/font&gt;" style="ellipse;whiteSpace=wrap;html=1;aspect=fixed;" parent="1" vertex="1">
          <mxGeometry x="205" y="95" width="49" height="49" as="geometry" />
        </mxCell>
        <mxCell id="MM3cToGARGYwKxWfsR-j-3" value="&lt;span style=&quot;background-color: light-dark(rgb(236, 236, 236), rgb(34, 34, 34)); color: light-dark(rgb(0, 0, 0), rgb(237, 237, 237)); text-align: center;&quot;&gt;$$y=f \left( \sum_{i=1}^n w_ix_i+w_0 \right)$$&lt;/span&gt;" style="text;whiteSpace=wrap;html=1;" parent="1" vertex="1">
          <mxGeometry x="155" y="191" width="133" height="50" as="geometry" />
        </mxCell>
        <mxCell id="MM3cToGARGYwKxWfsR-j-4" value="" style="ellipse;whiteSpace=wrap;html=1;aspect=fixed;" parent="1" vertex="1">
          <mxGeometry x="85" y="54" width="30" height="30" as="geometry" />
        </mxCell>
        <mxCell id="MM3cToGARGYwKxWfsR-j-5" value="" style="ellipse;whiteSpace=wrap;html=1;aspect=fixed;" parent="1" vertex="1">
          <mxGeometry x="85" y="88" width="30" height="30" as="geometry" />
        </mxCell>
        <mxCell id="MM3cToGARGYwKxWfsR-j-6" value="" style="ellipse;whiteSpace=wrap;html=1;aspect=fixed;" parent="1" vertex="1">
          <mxGeometry x="85" y="122" width="30" height="30" as="geometry" />
        </mxCell>
        <mxCell id="MM3cToGARGYwKxWfsR-j-7" value="" style="ellipse;whiteSpace=wrap;html=1;aspect=fixed;" parent="1" vertex="1">
          <mxGeometry x="85" y="172" width="30" height="30" as="geometry" />
        </mxCell>
        <mxCell id="MM3cToGARGYwKxWfsR-j-8" value="" style="endArrow=none;dashed=1;html=1;dashPattern=1 2;strokeWidth=2;rounded=0;" parent="1" edge="1">
          <mxGeometry width="50" height="50" relative="1" as="geometry">
            <mxPoint x="100" y="169" as="sourcePoint" />
            <mxPoint x="100" y="152" as="targetPoint" />
          </mxGeometry>
        </mxCell>
        <mxCell id="MM3cToGARGYwKxWfsR-j-9" value="" style="endArrow=none;html=1;rounded=0;entryX=1;entryY=0.5;entryDx=0;entryDy=0;exitX=0.088;exitY=0.238;exitDx=0;exitDy=0;exitPerimeter=0;" parent="1" source="MM3cToGARGYwKxWfsR-j-1" target="MM3cToGARGYwKxWfsR-j-4" edge="1">
          <mxGeometry width="50" height="50" relative="1" as="geometry">
            <mxPoint x="195" y="89" as="sourcePoint" />
            <mxPoint x="185" y="79" as="targetPoint" />
          </mxGeometry>
        </mxCell>
        <mxCell id="MM3cToGARGYwKxWfsR-j-10" value="" style="endArrow=none;html=1;rounded=0;entryX=1;entryY=0.5;entryDx=0;entryDy=0;exitX=0.005;exitY=0.439;exitDx=0;exitDy=0;exitPerimeter=0;" parent="1" source="MM3cToGARGYwKxWfsR-j-1" target="MM3cToGARGYwKxWfsR-j-5" edge="1">
          <mxGeometry width="50" height="50" relative="1" as="geometry">
            <mxPoint x="195" y="129" as="sourcePoint" />
            <mxPoint x="165" y="69" as="targetPoint" />
          </mxGeometry>
        </mxCell>
        <mxCell id="MM3cToGARGYwKxWfsR-j-11" value="" style="endArrow=none;html=1;rounded=0;entryX=1;entryY=0.5;entryDx=0;entryDy=0;exitX=0.012;exitY=0.605;exitDx=0;exitDy=0;exitPerimeter=0;" parent="1" source="MM3cToGARGYwKxWfsR-j-1" target="MM3cToGARGYwKxWfsR-j-6" edge="1">
          <mxGeometry width="50" height="50" relative="1" as="geometry">
            <mxPoint x="195" y="129" as="sourcePoint" />
            <mxPoint x="120" y="149" as="targetPoint" />
          </mxGeometry>
        </mxCell>
        <mxCell id="MM3cToGARGYwKxWfsR-j-12" value="" style="endArrow=none;html=1;rounded=0;entryX=1;entryY=0.5;entryDx=0;entryDy=0;exitX=0.105;exitY=0.812;exitDx=0;exitDy=0;exitPerimeter=0;" parent="1" source="MM3cToGARGYwKxWfsR-j-1" target="MM3cToGARGYwKxWfsR-j-7" edge="1">
          <mxGeometry width="50" height="50" relative="1" as="geometry">
            <mxPoint x="235" y="149" as="sourcePoint" />
            <mxPoint x="155" y="167" as="targetPoint" />
          </mxGeometry>
        </mxCell>
        <mxCell id="MM3cToGARGYwKxWfsR-j-13" value="&lt;font style=&quot;font-size: 9px;&quot;&gt;$$w_1$$&lt;/font&gt;" style="text;html=1;align=center;verticalAlign=middle;whiteSpace=wrap;rounded=0;" parent="1" vertex="1">
          <mxGeometry x="134" y="67" width="25" height="10" as="geometry" />
        </mxCell>
        <mxCell id="MM3cToGARGYwKxWfsR-j-14" value="&lt;font style=&quot;font-size: 9px;&quot;&gt;$$w_2$$&lt;/font&gt;" style="text;html=1;align=center;verticalAlign=middle;whiteSpace=wrap;rounded=0;" parent="1" vertex="1">
          <mxGeometry x="134" y="95" width="25" height="10" as="geometry" />
        </mxCell>
        <mxCell id="MM3cToGARGYwKxWfsR-j-15" value="&lt;font style=&quot;font-size: 9px;&quot;&gt;$$w_3$$&lt;/font&gt;" style="text;html=1;align=center;verticalAlign=middle;whiteSpace=wrap;rounded=0;" parent="1" vertex="1">
          <mxGeometry x="134" y="120" width="25" height="10" as="geometry" />
        </mxCell>
        <mxCell id="MM3cToGARGYwKxWfsR-j-17" value="&lt;font style=&quot;font-size: 9px;&quot;&gt;$$w_n$$&lt;/font&gt;" style="text;html=1;align=center;verticalAlign=middle;whiteSpace=wrap;rounded=0;" parent="1" vertex="1">
          <mxGeometry x="134" y="155" width="25" height="10" as="geometry" />
        </mxCell>
        <mxCell id="MM3cToGARGYwKxWfsR-j-18" value="" style="endArrow=none;html=1;rounded=0;exitX=1;exitY=0.5;exitDx=0;exitDy=0;entryX=0;entryY=0.5;entryDx=0;entryDy=0;" parent="1" source="MM3cToGARGYwKxWfsR-j-1" target="MM3cToGARGYwKxWfsR-j-19" edge="1">
          <mxGeometry width="50" height="50" relative="1" as="geometry">
            <mxPoint x="299" y="125" as="sourcePoint" />
            <mxPoint x="275" y="120" as="targetPoint" />
          </mxGeometry>
        </mxCell>
        <mxCell id="MM3cToGARGYwKxWfsR-j-19" value="" style="rounded=0;whiteSpace=wrap;html=1;" parent="1" vertex="1">
          <mxGeometry x="280" y="99.5" width="67" height="40" as="geometry" />
        </mxCell>
        <mxCell id="MM3cToGARGYwKxWfsR-j-24" value="" style="endArrow=none;html=1;rounded=0;exitX=1;exitY=0.5;exitDx=0;exitDy=0;" parent="1" source="MM3cToGARGYwKxWfsR-j-19" edge="1">
          <mxGeometry width="50" height="50" relative="1" as="geometry">
            <mxPoint x="349" y="119.36000000000001" as="sourcePoint" />
            <mxPoint x="376" y="119.36000000000001" as="targetPoint" />
          </mxGeometry>
        </mxCell>
        <mxCell id="MM3cToGARGYwKxWfsR-j-25" value="" style="endArrow=none;html=1;rounded=0;" parent="1" edge="1">
          <mxGeometry width="50" height="50" relative="1" as="geometry">
            <mxPoint x="229.39" y="144" as="sourcePoint" />
            <mxPoint x="229" y="179" as="targetPoint" />
          </mxGeometry>
        </mxCell>
        <mxCell id="MM3cToGARGYwKxWfsR-j-26" value="&lt;font style=&quot;font-size: 8px;&quot;&gt;$$w_0$$&lt;/font&gt;" style="text;html=1;align=center;verticalAlign=middle;whiteSpace=wrap;rounded=0;" parent="1" vertex="1">
          <mxGeometry x="204" y="181" width="50" height="10" as="geometry" />
        </mxCell>
        <mxCell id="MM3cToGARGYwKxWfsR-j-28" value="&lt;font style=&quot;font-size: 9px;&quot;&gt;$$x_1$$&lt;/font&gt;" style="text;html=1;align=center;verticalAlign=middle;whiteSpace=wrap;rounded=0;" parent="1" vertex="1">
          <mxGeometry x="87.5" y="64" width="25" height="10" as="geometry" />
        </mxCell>
        <mxCell id="MM3cToGARGYwKxWfsR-j-29" value="&lt;font style=&quot;font-size: 9px;&quot;&gt;$$x_2$$&lt;/font&gt;" style="text;html=1;align=center;verticalAlign=middle;whiteSpace=wrap;rounded=0;" parent="1" vertex="1">
          <mxGeometry x="87.5" y="98" width="25" height="10" as="geometry" />
        </mxCell>
        <mxCell id="MM3cToGARGYwKxWfsR-j-30" value="&lt;font style=&quot;font-size: 9px;&quot;&gt;$$x_3$$&lt;/font&gt;" style="text;html=1;align=center;verticalAlign=middle;whiteSpace=wrap;rounded=0;" parent="1" vertex="1">
          <mxGeometry x="87.5" y="132" width="25" height="10" as="geometry" />
        </mxCell>
        <mxCell id="MM3cToGARGYwKxWfsR-j-31" value="&lt;font style=&quot;font-size: 9px;&quot;&gt;$$x_n$$&lt;/font&gt;" style="text;html=1;align=center;verticalAlign=middle;whiteSpace=wrap;rounded=0;" parent="1" vertex="1">
          <mxGeometry x="87.5" y="182" width="25" height="10" as="geometry" />
        </mxCell>
        <mxCell id="MM3cToGARGYwKxWfsR-j-36" value="" style="shape=curlyBracket;whiteSpace=wrap;html=1;rounded=1;labelPosition=left;verticalLabelPosition=middle;align=right;verticalAlign=middle;size=0.33333333333333337;" parent="1" vertex="1">
          <mxGeometry x="65" y="49" width="30" height="160" as="geometry" />
        </mxCell>
        <mxCell id="MM3cToGARGYwKxWfsR-j-37" value="&lt;font style=&quot;font-size: 11px;&quot;&gt;$$in$$&lt;/font&gt;" style="text;html=1;align=center;verticalAlign=middle;whiteSpace=wrap;rounded=0;" parent="1" vertex="1">
          <mxGeometry x="42" y="124" width="25" height="10" as="geometry" />
        </mxCell>
        <mxCell id="MM3cToGARGYwKxWfsR-j-38" value="&lt;font style=&quot;font-size: 11px;&quot;&gt;$$out$$&lt;/font&gt;" style="text;html=1;align=center;verticalAlign=middle;whiteSpace=wrap;rounded=0;" parent="1" vertex="1">
          <mxGeometry x="376" y="114" width="25" height="10" as="geometry" />
        </mxCell>
        <mxCell id="MM3cToGARGYwKxWfsR-j-39" value="&lt;font style=&quot;font-size: 11px;&quot;&gt;$$f$$&lt;/font&gt;" style="text;html=1;align=center;verticalAlign=middle;whiteSpace=wrap;rounded=0;" parent="1" vertex="1">
          <mxGeometry x="301" y="82" width="25" height="16" as="geometry" />
        </mxCell>
        <mxCell id="MM3cToGARGYwKxWfsR-j-48" value="&lt;font style=&quot;font-size: 8px;&quot;&gt;$$0$$&lt;/font&gt;" style="text;html=1;align=center;verticalAlign=middle;whiteSpace=wrap;rounded=0;" parent="1" vertex="1">
          <mxGeometry x="282" y="124" width="16" height="6" as="geometry" />
        </mxCell>
        <mxCell id="AdRALSPv_yq5QHEjSDCA-4" value="" style="shape=image;verticalLabelPosition=bottom;labelBackgroundColor=default;verticalAlign=top;aspect=fixed;imageAspect=0;image=data:image/jpeg,/9j/4AAQSkZJRgABAQEASABIAAD/2wBDAAQDAwQDAwQEAwQFBAQFBgoHBgYGBg0JCggKDw0QEA8NDw4RExgUERIXEg4PFRwVFxkZGxsbEBQdHx0aHxgaGxr/2wBDAQQFBQYFBgwHBwwaEQ8RGhoaGhoaGhoaGhoaGhoaGhoaGhoaGhoaGhoaGhoaGhoaGhoaGhoaGhoaGhoaGhoaGhr/wgARCAJmBQADASIAAhEBAxEB/8QAHAABAAICAwEAAAAAAAAAAAAAAAEHBAYCAwgF/8QAFAEBAAAAAAAAAAAAAAAAAAAAAP/aAAwDAQACEAMQAAABv8AAAAAAAAAAAAAAAAAAAAAAAAAAAAAAAAAAAAAAAAAAAAAAAAAAAAAAAAAAAAAAAAAAAAAAAAAAAAAAAAAAAAAAAAAAAAAAAAAAAAAAAAAAAAAAAAAAAAAAAAAAAAAAAAAAAAAAAAAAAAAAAAAAAAAAABHxz7LhzAAAAAAAAAAAAAAAAAAAAAAAAAAAAAAAAAAAAAAAAAAAAAAAAAAAAAAAAAAAAAAAAAAAAAAAAAAAAADjpxk+Ssf5BfPoPwJ6DL6RIAAAAAAAAAAAAAAAAAAAAAAAAAAAAAAAAAAAAAAAAAAAAAAAAAAAAAAAAAAAAAAAAAAAAAAAAAAIEK+O/wAo9WAAOfDkekLr8UeyjOAAAAAAAAAAAAAAAAAAAAAAAAAAAAAAAAAAAAAAAAAAAAAAAAAAAAAAAAAAAAAAAAAAAAAAAAAIEKpMvyzxxgBEyNqyfWB1/dSAAAAAAAAAAAAAAAAAAAAAAAAAAAAAAAAAAAAAAAAAAAAAAAAAAAAAAAAAAAAAAAAAAAAAAAAAOtS5meZ+PWADkRvPf6tOr6sSAAAAAAAAAAAAAAAAAAAAAAAAAAAAAAAAAAAAAAAAAAAAAAAAAAAAAAAAAAAAAAAAAAAAAAAACBxigTK8+cYACJJsnJ9QnXmpAAAAAAAAAAAAAAAAAAAAAAAAAAAAAAAAAAAAAAAAAAAAAAAAAAAAAAAAAAAAAAAAAAAAAAAAAI6nmsyKUniAImSLizPRI7pAAAAAAAAAAAAAAAAAAAAAAAAAAAAAAAAAAAAAAAAAAAAAAAAAAAAAAAAAAAAAAAAAAAAAAAAAgnGjy0Z9QoJAOZF5Z98HHtiQAAAAAAAAAAAAAAAAAAAAAAAAAAAAAAAAAAAAAAAAAAAAAAAAAAAAAAAAAAAAAAAAAAAAAAAAQMHj5SMmt0ESCHcPROVcZMxyAAAAAAAAAAAAAAAAAAAAAAAAAAAAAAAAAAAAAAAAAAAAAAAAAAAAAAAAAAAAAAAAAAAAAAAAAI+V0+TTu0pAAMo4ensmzSOcgAAAAAAAAAAAAAAAAAAAAAAAAAAAAAAAAAAAAAAAAAAAAAAAAAAAAAAAAAAAAAAAAAAAAAAAAQPgY/kkydWAAZ5w9TZdgESkAAAAAAAAAAAAAAAAAAAAAAAAAAAAAAAAAAAAAAAAAAAAAAAAAAAAAAAAAAAAAAAAAAAAAAAAEDUcbycd/wARAAiftHV6wytvOMyAAAAAAAAAAAAAAAAAAAAAAAAAAAAAAAAAAAAAAAAAAAAAAAAAAAAAAAAAAAAAAAAAAAAAAAAAGhY3lY5fPgAE7OY/rfs2MAAAAAAAAAAAAAAAAAAAAAAAAAAAAAAAAAAAAAAAAAAAAAAAAAAAAAAAAAAAAAAAAAAAAAAAAAIgmssLzGcsWREhHKN3MX1r3fVEgAAAAAAAAAAAAAAAAAAAAAAAAAAAAAAAAAAAAAAAAAAAAAAAAAAAAAAAAAAAAAAAAAAAAAAAAies5U5jecyeoAImbFOj1Z2Z4AAAAAAAAAAAAAAAAAAAAAAAAAAAAAAAAAAAAAAAAAAAAAAAAAAAAAAAAAAAAAAAAAAAAAAAAAh1k0Pi0QTxAByWqdPqOcgkAAAAAAAAAAAAAAAAAAAAAAAAAAAAAAAAAAAAAAAAAAAAAAAAAAAAAAAAAAAAAAAAAAAAAAAADi6ifOuDUBABA5LsML0vy7BIAAAAAAAAAAAAAAAAAAAAAAAAAAAAAAAAAAAAAAAAAAAAAAAAAAAAAAAAAAAAAAAAAAAAAAAAIYZy8wY9ZkwADly9BGLfvLmAAAAAAAAAAAAAAAAAAAAAAAAAAAAAAAAAAAAAAAAAAAAAAAAAAAAAAAAAAAAAAAAAAAAAAAAAIj5Z2+U8fRiJAQT2z6YMW6HIAAAAAAAAAAAAAAAAAAAAAAAAAAAAAAAAAAAAAAAAAAAAAAAAAAAAAAAAAAAAAAAAAAAAAAAAAcXwju8mY2riAEDJ7PVBh2px7CJAAAAAAAAAAAAAAAAAAAAAAAAAAAAAAAAAAAAAAAAAAAAAAAAAAAAAAAAAAAAAAAAAAAAAAAAAjVTt8l9PwQAB9Dn6vOiwJ5AAAAAAAAAAAAAAAAAAAAAAAAAAAAAAAAAAAAAAAAAAAAAAAAAAAAAAAAAAAAAAAAAAAAAAAAADi0UyPJvX8shIAj7PZ61OrcEiQAAAAAAAAAAAAAAAAAAAAAAAAAAAAAAAAAAAAAAAAAAAAAAAAAAAAAAAAAAAAAAAAAAAAAAAAQrAzfKfXikAEE7DletDH2VyAAAAAAAAAAAAAAAAAAAAAAAAAAAAAAAAAAAAAAAAAAAAAAAAAAAAAAAAAAAAAAAAAAAAAAAAAERTx3+ZuOOSABu/Z6wOn6/IAAAAAAAAAAAAAAAAAAAAAAAAAAAAAAAAAAAAAAAAAAAAAAAAAAAAAAAAAAAAAAAAAAAAAAAAAOMUOZfnRwAAJsTK9SHHNAAAAAAAAAAAAAAAAAAAAAAAAAAAAAAAAAAAAAAAAAAAAAAAAAAAAAAAAAAAAAAAAAAAAAAAAAB1vOBn0KACJ5EWvnekjhkgAAAAAAAAAAAAAAAAAAAAAAAAAAAAAAAAAAAAAAAAAAAAAAAAAAAAAAAAAAAAAAAAAAAAAAAAOJPTx8wmVT0SAInmRdvf6FOPbEgAAAAAAAAAAAAAAAAAAAAAAAAAAAAAAAAAAAAAAAAAAAAAAAAAAAAAAAAAAAAAAAAAAAAAAAAgjE6/KpkVpMABHaR6BzLrHMAAAAAAAAAAAAAAAAAAAAAAAAAAAAAAAAAAAAAAAAAAAAAAAAAAAAAAAAAAAAAAAAAAAAAAAABxJ+b0+TTJ0OJAETknD0nn2qRyAAAAAAAAAAAAAAAAAAAAAAAAAAAAAAAAAAAAAAAAAAAAAAAAAAAAAAAAAAAAAAAAAAAAAAAAAcR8Pr8kmRqIADPOv1Lk2IJAAAAAAAAAAAAAAAAAAAAAAAAAAAAAAAAAAAAAAAAAAAAAAAAAAAAAAAAAAAAAAAAAAAAAAAAAgRq+N5NOz4QAD7B1esu7cCeQAAAAAAAAAAAAAAAAAAAAAAAAAAAAAAAAADHMh8MfcfDH3Hwx9x8MfcfDH3Hwx9x8MfcfDH3HwOJsLXhsLXhsLXes2ZrQ2VrQ2VrPA2lqg2tqg2tqkG2NPG4NPG4NPk29pnE3VpQ3VpQ3VpPWb00Ub00Ub00XrN+aCN+aCN+aDxLAV4LDV4LDV4LDVxBZCtxZCtxZCteBZqshZekat5zO35MgAjZDq9aZGxkcgAAAAAAAAAAAAAAAAAAAAAAAAAAAAAAAAAAartWrHimYkAAAAAAAAAAAAAAAAAAAAAAAAAAiQAAAiQAAAAAiQRIgkAI286vWOR9olIAAAAAAAAAAAAAAAAAAAAAAAAAAAAAAAAAAAattOqniqQAAAAAAAAAAAAAAAAAAAAAAAAAAAAAAAAAAAAAAAG/mP6x5/RI5gAAAAAAAAAAAAAAAAAAAAAAAAAAAAAAAAAAAA+T9YUEv0UEv0UEv0UEv0UEv0UEv0UEv0UEv0UEv0UEv0UEv0UEv0UEv0UEv0UEv0UEv0UFN+Cgl+igpvwUHF+igl+igl+igV/CgV/CgV/Cg4v0UEv0UEv0UCv4UCv4UCv4UDN+igl+igl+igpvwUEv0UEv0UEv0UCv4UCv4UZc2aIkAAAAAAAAAAAAAAAAAAAAAAAAAAAAAAAAAAAAAAAAAAAAAAAAAAAAAAAAAAAAAAAAAAAAAAAAAAAAAAAAAAAAAAAAAAAAAAAAAAAAAAAAAAAAAAAAAAAAAAAAAAAAAAAAAAAAAAAAAAAAAAAAAAAAAAAAAAAAAAAAAAAAAAAAAAAAAAAAAAAAAAAAAAAAAAAAAAAAAAAAAAAAAAAAAAAAAAAAAAAAAAAAAAAAAAAAAAAAAAAAAAAAAAAAAAAAAAAAAAAAAAAAAAAAAAAAAAAAAP//EACoQAAAGAQQCAgIBBQAAAAAAAAABAwQFBgIWFyBwERUSYBM1FAcQIZCg/9oACAEBAAEFAv8ATi9k2seCMjLp2bnG8I2lJVeXdU61/Dp2fn0INtIyK8o5BH4Oo2359N2Kxowbd+/XkXP9yM8TqNsJ1j0xZLMjCIu3az5fjCxLqWdtETbt+lrPaE4ZJdwo6V4wkI4m3MZFoRLXpa0W3CKxWXzcKcYCvrzjiOjUItt0tabdjHYqZ5KZ8a/W15xZiyQjm/S1stpNCzyPLLjW60rNLtWqTNHpXyLXcfxAzPI+NZqysyo1bJNEelTMiK1XH5DzyrFUUlc0UE26XSuWRYlbLcbo+VUqRyB4J4p49K55Y4Y2u3G/PiQqtPN0McSwLpVVXFHC1WzKSPiQqlQ/KZF46WWWwbpWi0qS6vHwKlUPiC6WcukmiFltKs0pxLA8sqrTybF0s8eIskLJZlZxbjgnkpnU6kTHpd+/Qjm8/YV5xxxSSzWUqtUwjMOlpOTbxTadn3E444t0FHStYqicRh0tKyreIazU04m3PFs3UdK1er4QqfS0zNN4VrLS7iYc8WjRZ6vXK0jCI+Olp2ebwjaTlHEs54sI9xJOa/XEINHpawWJvCIP368k54xkY4lXMFAoQbbpax2NGDQdvFny/GIiHEw6hoZvCtulrJZ0oVJ07Ver8YWEcTbqIiG8O16Ws1qTh0111HSvGDgXE24jIxCJa9LWq2YxeCqua2fGv15accsGCEc26WtdvJgSimSuXGuVpacWZskWCHS1ruBNccsjzPjWqurNKtmyTRHpa2W/4Az8nxq9Vzl80EcG6fSpn4K1XD8g88qvUlJTJFLBBPpXLIscbZbzcjzyqtSykMsMMU8Olc88U8bXbMpDLlU6j/KGOJYF0qusm3Ss9tUlM+Jf5FVp3yBF8S6VcOE2qNotGcyofHEvIqdQ/F0u7dpMkLJZVptbjjieZ1So4s8S6WfP0I5tYbGvOLeeOCeSudWqOEdj0tISKEY2n59ecc+eKSOa6lWqmETj46WlJVvENZqccTbni3bKOlqzV04VLx0tMTLeFbTEy4mXXFmzWfL1usIwiXS01ON4RtKSi8s6PixYrSLiu11GDbl0tPz6MG2kJBeTc8Y+OXlHUDAN4Nv0tYrIjBt3z5aQc+eMXFuJZ1CQTeEbdK+RZLMjCIunar1fjERDmYcw8M3hmnS1otScPgu4Ucq8YOCcTbmLim8S26WtNtwjMVVc11ONerq86vHx6EY26VMWm3YsMc88lMuNdra04uyZIsG3S1tt38cGZ5HxrNYUmlmzZJoj0r58C2XH4g8jyPjWKorL5oN02yXSpmRFbLh8udWqWcpmknijh0rlkWJWu3G6PlU6kb48MCTx6VzzxTwtNuykD5VSoG5GJFhj0qqrgjhabXnK5cfHkVOofkBF4LpVwum1Rs9pUmFOJF5FSqBYDx0s7doskLJaFZtTjjieeVUqBNh46WePUWDexWNacXPjhgamVUqJMC6WkJBCMbT1gcTjjiklmupV6onFJl0tKSjeJazs84nHPFu3UdLVmrJw+HS0tLt4dtNTLiad8WrRV6vWqylCI9K+RNzbeEayss4l3PFixXkHFfriEGh46Wn59CDbSUmvKOeMbGuJV1BV9vBodLWCxIQaD5+vJOeMVFuJd1BwiEI1+j5qYpYe4jx7iPHuI8e4jx7iPHuI8e4jx7iPHuI8e4jx7iPHuI8e4jx7iPHuI8e4jwczHkPeRw95HD3kcPeRw95HD3kcNQRg1BGDUEYNQRg1BGDUEYDsUWQ1JFDUkUNSRQ1JFDUkUNSRQ1REjVESNURI1REjVESNURIO1RBDVkONWQ41ZDjVkONWQ41ZDjV8KNYQw1hDDWEMNYQw1hDDWUIQ1nCDWcINZwg1nCDWcIDukKNbQo1tCjW0KNbQo1tCjW0KDvEMQ1zDjXMONcw41zDjXEODvMOQ13EDXcQNdxAkL8yTbO3ar5xxiIheZdxEQ3hm30ix/o/qkLCOJp1ExDeHbfSbH+j+pwcA4m3MZGt4pr4+lWP9H9SrteWnHDFghHN/pdj/AEf1Gt1lacWZs0WDb6ZIM/57LbQhtoQ20IbaENtCG2hDbQhtoQ20IbaENtCG2hDbQhtoQ20IbaENtCG2hDbQhtoQ20IbaENtCG2hDbQhtoQ20IbaENtCG2hDbQhtoQ20IbaENtCG2hDbQhtoQ20IbaENtCG2hDbQhtoQ20IbaENtCG2hDbQhtoQ20IbaENtCG2hDbQhtoQ20IbaENtCG2hDbQhtoQ20IbaENtCG2hDbQhtoQ20IbaENtCG2hDbQhtoQ20IbaENtCG2hDbQhtoQb/ANOEU1m7ZJol/wABn//EABQRAQAAAAAAAAAAAAAAAAAAALD/2gAIAQMBAT8BQw//xAAUEQEAAAAAAAAAAAAAAAAAAACw/9oACAECAQE/AUMP/8QAQBAAAQICBAwCCAYCAQUAAAAAAQIDAAQRNZPhBRIgISIxMjRBUVJwQpITIzNgYXGho0NykaLB0RRzghBTkKCx/9oACAEBAAY/Av8Aw4t/5jyWvSKoTTFI1dni4+aXDsI4mFTE0rP4U9MJwfhJejqacP8A87O4yyFPqHq2+cKfm1Yyz9P+maEyOElZ9Tbh/ns3wcmlbDf9wp+aXjLV9MgEZiITJYRVQ8PZrPi7MlCCHJs7KOXzhb8ysrcUc5OUluUBFB0l9MNtLcLpQmgqPHsv6KXIXOKGYdMKdfUVuKOcnKDTAxWx7RZ1CEsSqaANZ4nsuZaSIcmzr5IhTjyitajSScoJQMSXSfWOcoSxKpoSPr2XVKyBC5o61dEFbhKlqNJJ45Q8Esk6a4SxKoxG0/XsuqSwav1/4jg8MEqNJOs5QU4CiUSdNXP4CEsyyA22nUB2XVJYKVSr8R0cPlFJNJOUHn6W5NJ2ur5QlmXSENpFAA7LUnMBC5LBSvgt0fxliYm6WpRJ88JaZSENpFAA7LUqNAHEwqSwaqhnU44PFlpm8IJKZYbKD47oCEDFSNQHZYqWaEjWTCpTByqJbxr67stM5hNOKzrbb6oCUigDUOyyluqCEJ1kwqUkTiyo2ldd2WmdwqihOtto8fnAo1dllOPKCEJFJJgsSpKJNPDqy0z2FE6Wtto8Pn2XU9MrDbadZMKaZpbk0nRHV88qhOcw3OYUT67Who+Hsup6ZWENp4mMVNLconZRz+eUEoBUo6gITOYQGNMHYQfB2XU/NLCUJ+sUqOJLp2G8oIaSVrVqAhMzOgLmyNXR2XU/NrxUjUOcYzug0NhvllJaYQXFqNASIS/M+smyM/JPZdT80qjpT1QXZg0JGw305SWpdBW4o5gI9M/QucWM56fl2XL0wdI7COowXppX5UjUnKQxLIK3FnMBGMr1k0oaa+XZcqdOM8fZtjjBfm1Uk6hyyksSiCtxX0jN6yYUNNfZfPpzCthuFPzS8ZxX0yksSiMZXE8oxGtJ5XtHOfZfNQuaUNBH8wt+ZWVuLOc5QYlR+ZXBIgMy6dI7a+Kuy/o2qHJxWyjl8TCnplZW4o5ycoNS4oQNtzgkQGJYfmVxV2XLMuQ5NkaumFOvqK3FHOTlYjIxWhtucoSxKpoSNZ5nsuZWRIVNnWeiFLdJUtRzk5VA0JdO25CWJROIhP17LmUwcoKmfGvogqWoqUc5JysZVLcqnaXz+AhLEqkIbT2XXJ4MXjPHbcHhilRpJ1nKDj1LconWrq+UIZl0BDaBQB2XXI4LVn1OOj+IpOV/kTYKJNJ88JbZSEISMwHZYk5hC5LBatDU46OPyyxMzgLcoNXNcJbaSEoSKAB2WKlGgDWYXJYMVQ1qccHiy0zWEAUyozpSfHASgYqRqA7LFSyEpGsmFSmD1YsqNpXXlpncJpoZ/DbPigBIoA4dllOvqCG0jOowqXkyW5QceK8qiEzuFU5tbbR/mAAKB2WU6+oIbSM5Mehl6W5NJ1dWVQM5hE9hRFKtbbR4fPsup6ZUENoGcmMRHq5VJ0Uc/nlAJFJOoCEzmEk0zB2EHw9l1Pza8RtMf9uWSdBvKCG0lSzqA4wianxjTR1J4I7LqfmlhKR9Yxl6DKdhvllJbZSVrOoCBMzlC5xX7Oy6n5pWbgniox6WYNCBsIGoZSWmElbizQAIDr9Dk2oZz09ly9Mq0vAjiqC9MnN4UcE5SWJVBW4rUBGOuh2aUNJfL5dly4+cZZ2EDWYU/NKpPhHBOUhiVQVuKjguZVtr7LlSiFvq9m3Cn5teMs/TKTLyicZZ48oxWxjPKHrFnj2X4OTSthv+YW/NLx3FZSWJVNJO0rgkRiMZ3Dtr59lylFDk2rZRy+cLfmVlbiznOUGZVP5lHUIDMsM/jXxUey5YlSHJw8OiFOvqK3FHOTlBtkUNDbcOoQliVTQOJ6uy5lZIhc4drkiFOPKK1qOcnjlaOhLp23ISxKJxUD69l1SmD1BUydpQ8EFaySo6ycqk0tyqdtcIl5VGI2nsuqSwYul38RwcIpJpPPK9K9SiTSdJXV8BCWZdAQ2kUADsuuRwWrPqcdHD4CCTnOUH5qluUHHrhLTCQhtIoAHZak5hC5HBS82px0fxlpmZ0FEoDq64ShpIShIzAdliVGgc4VJYNVQwMy3B4stM5hFJEuNhB8cBKBipGoDssVuEJSNZMKlMHnFlhtL68tM7hNNDX4bR8XxgBIoA7LKW6oJQnWTBlpIlEoDnPXlonsKJ0NbbR4/OM3ZZTz6ghtApUTBZl6W5NJzDq+eWmdwonS1ttHh8T2XU9NLDbadZMejbpalEnRTz+eVipFJOoCETuE0+t1oaPh7LrfmVhDaRGalEqnYR/OUEoBUo6gITOYRSFTJ2EHwdl1Pza8VtP1ilw4rAOg2OGUlDKStajmA4wJicAXNkeTsup+bXQOA4qgre0WhsN8spLUugrcUaABAemaHJsjX09ly9NK/KniYL0waEjYRwTlJZlkFbijmAjHdocnFbS+XwHZcuvmlZ9mjqgvzSqTwHAZSWJVOO4qM2nMq219l8dw47x9m3xMKfmlUqOocspMvKIxlHjyjFb03jtuc+y+lpzCthsQqYml4y1fTKSxKppPE8BAaZFLh23Or3IKnCEpGsmN9l7QRvrFoI31i0Eb6xaCN9YtBG+sWgjfWLQRvrFoI31i0Eb6xaCN9YtBG+sWgjfWLQRvrFoI31i0Eb6xaCN9YtI3xnzxvrPnjfWfPG+s+eN9Z88b6z5431nzRvrPmjfWfNG+s+aN9Z80b615o31r9Y31uN9bjfW431uN9bjfW431Eb6iN9RG+ojfURvqIzzqI31H6GN9R+hjfUfoY31H6GN9R+hjfU/oY31PlMb6nymN9T5TG+p8pjfU+UxvqfKY30eRX9Rvos1f1G+izV/Ub6LNX9Rvos1f1G+izV/Ub5T/wV/Ub1+wxvX7DG9fsMb1+wxvX7DG9fsMbwT/wMe3V5DHt1eQx7dXkMe3V5DHtz5DHtlH/gY9ovyx7Rfkj2i/LCv8DGdf8ACCKKIW/MrK3FHOTlJYlhm8a+kQGZYfmVz9yZ7/X7qhqXFCBtucEiAzLJ/Mrifcqe/wBfupiMjFaG24eEJl5VNCRrPP3Lnv8AX7p0DQlk+0chDEqjEQn6+5k9/r90sZVLconaXz+AhDEqgIbTw9zXpbH9H6VNGNRTRFYmxvisTY3xWJsb4rE2N8VibG+KxNjfFYmxvisTY3xWJsb4rE2N8VibG+KxNjfFYmxvisTY3xWJsb4rE2N8VibG+KxNjfFYmxvisTY3xWJsb4rE2N8VibG+KxNjfFYmxvisTY3xWJsb4rE2N8VibG+KxNjfFYmxvisTY3xWJsb4rE2N8VibG+KxNjfFYmxvisTY3xWJsb4rE2N8VibG+KxNjfFYmxvisTY3xWJsb4rH7N8Vj9m+Kx+zfFY/ZvisTY3xWJsb4rE2N8VibG+KxNjfFYmxvisTY3xWJsb4rH7N8Vj9m+Kx+zfFY/Zvisfs3xWJsb4rE2N8VibG+KxNjfFYmxvisTY3xWJsb4rE2N8VibG+KxNjfFYmxvisTY3xWJsb4rE2N8Vj9m+Kx+zfFY/Zvisfs3whT86p1sHSQG6KfrCWpdAbbTqSP/QN/8QALhABAAIBAwMCBQQCAwEAAAAAAQARITFRYSBBcPDxYHGhwdEQgZGxMOFAUJCg/9oACAEBAAE/If8AxwupoYC5qwUtrInfw8UUmNyxqK2g0GxOBBXTnDPezw36xEzkZMrf5R672jsNg/RAUjeGNppS+vCmteGHTEuiPiwaJ+vCIsd+3A6HLUWJ2gqQAvTsu8M+FlqXcGFur/LZLSTv6HSG0FTGjgO8CxTU+XhZdo436oO7HPKXavRVyqj8FWLD94efOTV3YFeFLjrCEXS1Df5xvpl7V6TDG4AYMDY3ZV3+V1e6w08KuIEdKJs/2lmkDWrpO8Ygcwn0IJ4WA1W/PhZcfWGKXhF12OYnZ1o2r0h7w0ilSmQ/p0avCrNG29wKDlE/w/KOFItXNxc56ExiGTlCMvaKTKiqoHhS44XUKztI1bXj8o2bcvfnprEMcA0lPA4lSoTUBArwppEZDWpQEd2boHynEWzoC4EauV4ioB2GgVRtDTPhUUhLRQESMWBwriHTXp1Zl22DQPJ4hsBUBg8LBUC10BHLsQmmT0i6DKukdMFo/wBqNuJQAAFAeFVxFCmXoCOjZDQvdl1p0lkAtdAzBPa31R+E2UYxiV4UWoSy7fgIwewV5QNRb/UhAl0AC1Zek3oDd5gGMVUCvClwM6ZSpVdXWyt4XboC4w8QBasFPFYscnmVAo8KXDfN31WxHrGNTg5eZeuellwUO1lrcwsg2OZVQ08Kg2E9xewRRneBsEe3SMIgtqwOS2WvCTa+/hV0hoaFdxbEua6icD13jr00/FGtlBd0IdoM8yvCjCItgGuxLLnbQGxL6aWTID5g1n0HhZdStIXun+Jpbcbg7EvHRrGXp20G67Q3gJad9jiBvDwpcVLCNDry8RxzO+g2IvS/BHgO7DJBLQytuDwurEi4+XEZsRSOnTqPW3/cME0haGTfwu33UNMLtCkR6WgqFiDKj7pk38LOJXusWs5v4l99TrVlxb/QlYgNi8xgwqvznvMDwotS4XlaPIfzFaoXWr0BbKzK4rxYwGxzBWi7ardgY8KuOImxY1AbfOIeGwtXpCVVTzkBuUoA158LXrxvAjApdh2OYxY60yr0hAgcFynhFaBj8KukWjOMS5ou004hERV1Xv0naG9RTRWxAiED0B4VYbEAtV0Je7sS/h+UUqqq6vTV6REQ2KpOOIJZQ1AeFVqDqGqNBLEByX8DjqVFqqBUr8QZ46FQEDwotawj42igIsxaDhX4lladAXKpzGa5U4DyeIIYVA7eFbiqRLaAiJhSjXK8RekqoKugSv2t3LmDAgKAKDwsm8S+gIufBNC92aulGCo0B3gUBAF/lAaceFXSWT2I+kQovVOeUPSxZ1AtWCtztEeeZo48KrWkNOS17rsSlNoVP1eeo+pQNaoTcwvkPzDIeFVhyDaFytgjq9WJxy+c7uegLjUDodqwiAMDkG3z/QGPClyooCi/YEY6CKw/mLZ0VcLega1YVQbHZwJq08LHKUIGptKAgwDYR16U8LUQKgmDHGDD4VeISQVOyxcyKDobE1dKVgwBobwVQHnNOCU7eFVoh4goHK7uxG3NwdhsS5r+pHEpz2Hdhk28JbfKE08KLGhYOJ+riPkTlexsHSC2O9QNHzDARBhcy4ECvCpixWps5RdWYsWzoC5hcfJPMuSPKHzErd8K3XeD4PGoG7GVgX2sXoqJTYdo/mD3Az5Vuys+FXSYFAI0fzHcEXWqPSFAuzmDg3Yc0uWsrdYPhXDSF6aso/2iGVVVq9QwEMprwcwtIaA78+FlggRbPpZzHCkbV3lv6hcqEg2cKgLpQ1eFnJeA1YGc6z1QYFRyrdsvH6hc7wEl9RlbELyIagPCypQC1cVM0DJHXj8ot69FQMSwOwWHh8pT0YegPCwNDLU1Uf32iL2OI5XpO3MRA1gpW/yhRw0CgPCqXDQmrqAiHVIGH/Tp7wzprLrTbDnk4hxBUAVXhVagtktVASs4Kynl8pfQa5hZgz/MZ1JwX84AAABQHhW85ii2J0BE4wAw84vHQFywBasEvXg9EAAUUGnHhW4K07REtgMuecLddJxTqBasEAXgLOTzCmleFblxISvfiORK6uvLmauio086JasIgFis/wBoG/hV0gPCYO72DvHjM1MDf5x6aKhjWraW73ZLBsczR4VYIAzHqbEQJbjcH89JrBmaHtWD4euuOJ4WvWBcGsOrsRRKKFwbS16AuEMcCuECB3pK8K0gBrQLlRLaONw7EW+ir0iHU4DQN2FKBDH32OPCpZcTgGguTfgiP26mDsRy9FRBC80wd1hjCchmAR48KpZL3QiMz82MKc66cCPSpJEX0d2DgNbGVD4HKedqoD/ghCCCCCCCCCCCCCCCav8AsBnsaey57Lnsuey40/ZzJ9hPZE9kT2RPZE9hTVIfc2e5s9zZ7mz3NiQ/RWelZ6VnpWelZ6VnpWf1oFnqL7T1F9p6i+09RfaeovtOR9W0S9T9J6T+09J/aek/tPSf2npP7R1n7DdTBgwYMBTB+STk+vicn18Tk+vicn18Tk+vicn18RDHyXVJJJJbAY4xD3bPfkt/NiWEFJhbsshKyOkjRchQxuTOdq3MveGnwQf5P9nwXf63UuX0BbH+uFi4C7Dq5l3lfBP1n+z4PC4lfqECMTiYP5lKuZdXuzDT4K+s/wBnweNPRTxSYO2xzCbG078lgU/38F/Xf7PhIIaOnq+pDSLQDV3h8Ge+wwr/AK4BBBBBBBBBBBBBBBBBBBBBBBBBBBBBBBABBBBBBBBBBBBDlQ5UOVDlf4RhBBBBBBDlQ5UOVDlQ5X+cQQQQQQQQAAAAAA5UOVDlQ5ULwxLGdrgT90WgIFf/AAGf/9oADAMBAAIAAwAAABAAAAAAAAAAAAAAAAAAAAAAAAAAAAAAAAAAAAAAAAAAAAAAAAAAAAAAAAAAAAAAAAAAAAAAAAAAAAAAAAAAAAAAAAAAAAAAAAAAAAAAAAAAAAAAAAAAAAAAAAAAAAAAAAAAAAAAAAAAAAAAAAAAAAAAAAAQAAAAAAAAAAAAAAAAAAAAAAAAAAAAAAAAAAAAAAAAAAAAAAAAAAAAAAAAAAAAAAAAAAAAAAAAAAAAAAQjAAAAAAAAAAAAAAAAAAAAAAAAAAAAAAAAAAAAAAAAAAAAAAAAAAAAAAAAAAAAAAAAAAAAAAAAAAAAQSgBAgAAAAAAAAAAAAAAAAAAAAAAAAAAAAAAAAAAAAAAAAAAAAAAAAAAAAAAAAAAAAAAAAAAAAAAAAAQSABADgAAAAAAAAAAAAAAAAAAAAAAAAAAAAAAAAAAAAAAAAAAAAAAAAAAAAAAAAAAAAAAAAAAAAAAAABgAAAygAAAAAAAAAAAAAAAAAAAAAAAAAAAAAAAAAAAAAAAAAAAAAAAAAAAAAAAAAAAAAAAAAAAAAAAAAAgAyygAAAAAAAAAAAAAAAAAAAAAAAAAAAAAAAAAAAAAAAAAAAAAAAAAAAAAAAAAAAAAAAAAAAAAAAABBABRwAAAAAAAAAAAAAAAAAAAAAAAAAAAAAAAAAAAAAAAAAAAAAAAAAAAAAAAAAAAAAAAAAAAAAAAAAASQADCAAAAAAAAAAAAAAAAAAAAAAAAAAAAAAAAAAAAAAAAAAAAAAAAAAAAAAAAAAAAAAAAAAAAAAAAACQiBxRgAAAAAAAAAAAAAAAAAAAAAAAAAAAAAAAAAAAAAAAAAAAAAAAAAAAAAAAAAAAAAAAAAAAAAAAACBAAQzAAAAAAAAAAAAAAAAAAAAAAAAAAAAAAAAAAAAAAAAAAAAAAAAAAAAAAAAAAAAAAAAAAAAAAAAACzAAQhAAAAAAAAAAAAAAAAAAAAAAAAAAAAAAAAAAAAAAAAAAAAAAAAAAAAAAAAAAAAAAAAAAAAAAAAAQwgBTAAAAAAAAAAAAAAAAAAAAAAAAAAAAAAAAAAAAAAAAAAAAAAAAAAAAAAAAAAAAAAAAAAAAAAAAAAASAATgAAAAAAAAAAAAAAAAAAAAAAAAAAAAAAAAAAAAAAAAAAAAAAAAAAAAAAAAAAAAAAAAAAAAAAAAAxhCDhgAAAAAAAAAAAAAAAAAAAAAAAAAAAAAAAAAAAAAAAAAAAAAAAAAAAAAAAAAAAAAAAAAAAAAAAAASyACTAAAAAAAAAAAAAAAAAAAAAAAAAAAAAAAAAAAAAAAAAAAAAAAAAAAAAAAAAAAAAAAAAAAAAAAAABgQAAQwAAAAAAAAAAAAAAAAAAAAAAAAAAAAAAAAAAAAAAAAAAAAAAAAAAAAAAAAAAAAAAAAAAAAAAAABzQATRwAAAAAAAAAAAAAAAAAAAAAAAAAAAAAAAAAAAAAAAAAAAAAAAAAAAAAAAAAAAAAAAAAAAAAAAABhgABQgAAAAAAAAAAAAAAAAAAAAAAAAAAAAAAAAAAAAAAAAAAAAAAAAAAAAAAAAAAAAAAAAAAAAAAAABQCAQyAAAAAAAAAAAAAAAAAAAAAAAAAAAAAAAAAAAAAAAAAAAAAAAAAAAAAAAAAAAAAAAAAAAAAAAAABjwASSgAAAAAAAAAAAAAAAAAAAAAAAAAAAAAAAAAAAAAAAAAAAAAAAAAAAAAAAAAAAAAAAAAAAAAAAAABCAAxAAAAAAAAAAAAAAAAAAAAAAAAAAAAAAAAAAAAAAAAAAAAAAAAAAAAAAAAAAAAAAAAAAAAAAAAABiDACBwAAAAAAAAAAAAAAAAAAAAAAAAAAAAAAAAAAAAAAAAAAAAAAAAAAAAAAAAAAAAAAAAAAAAAAAAATiARCAAAAAAAAAAAAAAAAAAAAAAAAAAAAAAAAAAAAAAAAAAAAAAAAAAAAAAAAAAAAAAAAAAAAAAAAABiQAAyAAAAAAAAAAAAAAAAAAAAAAAAAAAAAAAAAAAAAAAAAAAAAAAAAAAAAAAAAAAAAAAAAAAAAAAAABjAARwAAAAAAAAAAAAAAAAAAAAAAAAAAAAAAAAAAAAAAAAAAAAAAAAAAAAAAAAAAAAAAAAAAAAAAAAABCgBCCAAAAAAAAAAAAAAAAAAAAAAAAAAAAAAAAAAAAAAAAAAAAAAAAAAAAAAAAAAAAAAAAAAAAAAAAACSgBRCgAAAAAAAAAAAAAAAAAAAAAAAAAAAAAAAAAAAAAAAAAAAAAAAAAAAAAAAAAAAAAAAAAAAAAAAARAAAxCAAAAAAAAAAAAAAAAAAAAAAAAAAAAAAAAAAAAAAAAAAAAAAAAAAAAAAAAAAAAAAAAAAAAAAAAATAgBBAAAAAAAAAAAAAAAAAAAAAAAAAAAAAAAAAAAAAAAAAAAAAAAAAAAAAAAAAAAAAAAAAAAAAAAAAAQQgASgAAAAAAAAAAAAAAAAAAAAAAAAAAAAAAAAAAAAAAAAAAAAAAAAAAAAAAAAAAAAAAAAAAAAAAAAASygAAwAAAAAAAAAAAAAAAAAAAAAAAAAAAAAAAAAAAQwwwwwwwgwwgAAAwwwwwgQwwQAAQAAAQwwgAAADTAAhQAAAAAAAAAAAAAAAAAAAAAAAAAAAAAAAAAABCgAAAAAAAAAAAAAAAAAAAAAAAAACAAACAAAAACBDgAhhAAAAAAAAAAAAAAAAAAAAAAAAAAAAAAAAAAAASAAAAAAAAAAAAAAAAAAAAAAAAAAAAAAAAAAAAAAAAAQAAAAAAAAAAAAAAAAAAAAAAAAAAAAAAAAAAAAADDDDDDDDDDDDDDDDCDCBDDDDDBDDDDDDDDCDDDDDBCAAAAAAAAAAAAAAAAAAAAAAAAAAAAAAAAAAAAAAAAAAAAAAAAAAAAAAAAAAAAAAAAAAAAAAAAAAAAAAAAAAAAAAAAAAAAAAAAAAAAAAAAAAAAAAAAAAAAAAAAAAAAAAAAAAAAAAAAAAAAAAAAAAAAAAAAAAAAAAAAAAAAAAAAAAAAAAAAAAAAAAAAAAAAAAAAAAAAAAAAAAAAAAAAAAAAAAAAAAAAAAAAAAAAAAAAAAAAAAAAAAAAAAAAAAAAAAAAAAAAAAAAAAAAAAAAAAAAAD/xAAUEQEAAAAAAAAAAAAAAAAAAACw/9oACAEDAQE/EEMP/8QAFBEBAAAAAAAAAAAAAAAAAAAAsP/aAAgBAgEBPxBDD//EAC0QAAECAwcEAgMBAAMAAAAAAAEAETFBUSAhYXDB8PFxkaGxgdEQYOEwUJCg/9oACAEBAAE/EP8ApwIJ1yg8LdhMyTSCZPALGIP4rGKdpkDC/eh/TSMtKFEAcOMnDIDg6koC7EvAUoB+ABA4EVpnyL1CgWEMmgAwKEA+ofKd1qwKMgLGHAIBXAdyIJ7tqiZkwJmHb0VB7WnKUCgFLJClyrhpC7jWiZwUS+JmyVdo/hV7zgPPQKMZkgWBIT0GYR/S9QLvwmIFyVDPwTvlAU1aQnv2AQsiXEYhIbUFkuUXyiOSw5Ce5MB6qdUhwheSTapVTSsO6Uzb11AIzHJZhEIXERo+/RXsY0Qm9l4On9ebgRTMl7nUwqnFNkoRAuRa4wIIS0u6qqR7iAEaohdYBvI9JtcI8VSoG+SRAEMlCwssBwgYIIT3fCpQsRIrAXqcu6vsEPcUIGhphkqHESxrskgSTBEn+vAfd1oNgJAiOmbZwYJkS9ldE7AAgGSwuk7ghNSTqwxhfu9rUagDXehxxdhmoFp8gZLMU5RqhJT6tyJEtr1HZINGBRplpsinYUUKUwAuhkqw5MzsIAoOuQF46BOJHezxAHPtKKBVogBixkUJjvkqOVQOIJkFdcXDsNwCLeTh/wAxJ7ZJ8IABeErwXntLqmzMlQGOyI5wYioMVsCkRE0EkGwcMncbVAkptMEXueqfPJWGJ72rsA5koZEy4SjMkbgWT22WSDgFF8OBuScl4+KX4PPEq8CjAUczNqcO2BC4KorMB3zUqeSwHYufAoIlFqFuwfWqHJZvbPpiB6igPmMym3kZkoTC5DpMVQvYKlMZ3gKBPhZGtR7wmQC3EBAwAmJmhkoQQcfv4U0GZRSfbAnIJtyykvgMRDAKr200FNCXLIBEclGKO76QvCnpnoAcgEFrN6z1daVC6O6ByjIZLtRFDb9l6rWECgFoNZcAHHn9CaFCJ1HRphkuYQa0GbtYCJKPNh6BZRDLFDoBhxNArrGvA4l9ZLExTKfBHnQpnTwBORIvxEmoOgrkccFezl+SHQBDJUFYitwIK+IknQqkQsg9BHXmBGfhM7XdwJMphmShKIXiju/QL2kr6q8ffAESbDEojoY2PCiT4UQnIOIZnJYgLyLyASJRLP1R5ZCDhEk2rVa2JE9UFvEC0JnHHJYC4gxWakRib2URAj3h1ltxYTrQvDUpl/5EMlkClAAJlH6ngU8KvZaagDUOE/LCQeZ7JrxxEIIBslDI2B4CBVPDtdE1n8inWBfd+ND3oEuldUM9pshIBAEMlAouXL8FEklXINCCPimqhLAkCBodsTSDypE1BIQABghkoxMyMIkiAeOhBSEAizBqJArd3VQRGkFdprAAhkqfwWdIhTjyA8dBaJvUQEZI5dZEaBGdAU1cyWHoe4iEyZL+uAwSJUVm82ACEgE2ZCMamfrksDI7QwQAZk0RSSmgyrq6wE6c0ikAAEwPciRda6IQYclWVrz3AyV2Hq4CupqALBw3486ohcsFhyk9ymlMMyUbBeMPiT90RgnqJ9Uyh2AEjx/aIfU1OAmE7yVOyWH4UHhQFKldp3hiK9bVrC/AaBeUkwmFjPJYOZOmDgXXUxXxZTCvaG7orgmHQBBgXuFY95LyPpoeAlXhveICQCdYRJqSonWnkAhIlMukUwKBMIMlGVXxEOmPlPfYQEiQATrFwLqgMAR5ALEjqBjUFAgNkqGIFyjQRAUWl6xooAIBXJZBS81wnSWiH5Z9QBhQJ+SoRiSqVsJ56BXpnSIszkziUH9ZSC+RmwIVODslidb0KomuQlNOfVIBinWZAR8nneVzzXGJSMlSIJ84NUHr6p9hxEJkou9lwBrkWUxB/KiMyYnJaQFIYgjH+Rko7ZwErIGFUJcgNhMk1dkCAGSwnJgRNSXvXJWoSnmonBUsgYI+ZtAqXSpTI/QIZLQ+igBitURdm9oYrByMkrwaHJ7lBO6aJQAGS1xiMAClyygo0fdX1ZfcTqG3RJQaTQqFGgGGSwY1+RaJLo+tyLnFt3sihSECLshlmAZU1jBXYZgADJUxK7eagCbMeF0mKmFOsMRdiCqwEaMKgUuIQGUMlJSNyZABu5GfC2HUCfcsg8FgvCfUQFaBDyEAyVMWnlwSpXihsJjYSswyEOM4QkFBcNES08kTJaDPdG/gFSVuaaJeilkch9vPAJAKJtREzIPFGyVVl4Z6iTwozNw6jFcSisiCoeYJOGGLcs5LFaZ2i6AjmSvMhcMrUbQ6f0iGCrpPCjviBKAuvyVulLguHQcKPi50Q2NSjGWHimS5IpmgCoguAMbyU3Ja8aHQPQTK7FtmZsgKMm9dQCyAmr5DRv1UVa+SgBFMXV5ODKjM9l49vDaiMXFh8V3x7jZYBDIaonUFAMlwI3EUCwAjS9KCnIBRWervMArHC1/AUUH6R+Zb6IFAF2z6rc+q3Pqtz6rc+q3Pqtz6rc+q3Pqtz6rc+q3Pqtz6rc+q3Pqtz6raVuqG3fa3Dqtw6rcOq3DqgnbXqoCyQQQQRmoCarc2i3NotzaLc2i3NoiBtWCY2fS3P1W5+q3P1W5+q2P1WzDYC1ixYsWJu9BlGNordu3btyLPdg1oePHjx53bgRtrLly5cuWhvjJbZ0W2dFtnRbZ0W/dE9CuxcLYei2Dotw/ScrMASYaK+Umj4DAWYl8qyA0j6C8l+DSP6UAB/wCWf/B/9HfkEjk6xdCx1yAWNTQLzgwHDomFQ/SeB/TnDWA4hslnE4McC8p/hzzJTf0s4H9OE4bA8VtyGfhMnBVHcFHcydEL+op+5K0XzzZDCqSbyqf0xq+8UeIH7olj2q8dXjq8dXjq8dXjq8dXjq8dXjq8dXjq8dXjq8dXjq8dXjq8dXjq8dXjq8dXjq8dXjq8dXjq8dXjq8dXhq8dXjq8dXjq8dXjq8dXjq8dXjq8Vt37777x+Orx1eOrx1eOrx3/AAv33333v8VXjq8dXjq8dXjqgf1V4avDV4avDV4apL9WzvvvvEbW0IxzAzu/8B1e1EB//9k=;" vertex="1" parent="1">
          <mxGeometry x="-287.94" y="546" width="145.94" height="70" as="geometry" />
        </mxCell>
        <mxCell id="AdRALSPv_yq5QHEjSDCA-5" value="" style="shape=image;verticalLabelPosition=bottom;labelBackgroundColor=default;verticalAlign=top;aspect=fixed;imageAspect=0;image=data:image/jpeg,/9j/4AAQSkZJRgABAQEASABIAAD/2wBDAAQDAwQDAwQEAwQFBAQFBgoHBgYGBg0JCggKDw0QEA8NDw4RExgUERIXEg4PFRwVFxkZGxsbEBQdHx0aHxgaGxr/2wBDAQQFBQYFBgwHBwwaEQ8RGhoaGhoaGhoaGhoaGhoaGhoaGhoaGhoaGhoaGhoaGhoaGhoaGhoaGhoaGhoaGhoaGhr/wgARCAJmBQADASIAAhEBAxEB/8QAHAABAAICAwEAAAAAAAAAAAAAAAEHBAYCAwgF/8QAFAEBAAAAAAAAAAAAAAAAAAAAAP/aAAwDAQACEAMQAAABv8AAAAAAAAAAAAAAAAAAAAAAAAAAAAAAAAAAAAAAAAAAAAAAAAAAAAAAAAAAAAAAAAAAAAAAAAAAAAAAAAAAAAAAAAAAAAAAAAAAAAAAAAAAAAAAAAAAAAAAAAAAAAAAAAAAAAAAAAAAAAAAAAAAAAAAABHxz7LhzAAAAAAAAAAAAAAAAAAAAAAAAAAAAAAAAAAAAAAAAAAAAAAAAAAAAAAAAAAAAAAAAAAAAAAAAAAAAADjpxk+Ssf5BfPoPwJ6DL6RIAAAAAAAAAAAAAAAAAAAAAAAAAAAAAAAAAAAAAAAAAAAAAAAAAAAAAAAAAAAAAAAAAAAAAAAAAAIEK+O/wAo9WAAOfDkekLr8UeyjOAAAAAAAAAAAAAAAAAAAAAAAAAAAAAAAAAAAAAAAAAAAAAAAAAAAAAAAAAAAAAAAAAAAAAAAAAIEKpMvyzxxgBEyNqyfWB1/dSAAAAAAAAAAAAAAAAAAAAAAAAAAAAAAAAAAAAAAAAAAAAAAAAAAAAAAAAAAAAAAAAAAAAAAAAAOtS5meZ+PWADkRvPf6tOr6sSAAAAAAAAAAAAAAAAAAAAAAAAAAAAAAAAAAAAAAAAAAAAAAAAAAAAAAAAAAAAAAAAAAAAAAAACBxigTK8+cYACJJsnJ9QnXmpAAAAAAAAAAAAAAAAAAAAAAAAAAAAAAAAAAAAAAAAAAAAAAAAAAAAAAAAAAAAAAAAAAAAAAAAAI6nmsyKUniAImSLizPRI7pAAAAAAAAAAAAAAAAAAAAAAAAAAAAAAAAAAAAAAAAAAAAAAAAAAAAAAAAAAAAAAAAAAAAAAAAAgnGjy0Z9QoJAOZF5Z98HHtiQAAAAAAAAAAAAAAAAAAAAAAAAAAAAAAAAAAAAAAAAAAAAAAAAAAAAAAAAAAAAAAAAAAAAAAAAQMHj5SMmt0ESCHcPROVcZMxyAAAAAAAAAAAAAAAAAAAAAAAAAAAAAAAAAAAAAAAAAAAAAAAAAAAAAAAAAAAAAAAAAAAAAAAAAI+V0+TTu0pAAMo4ensmzSOcgAAAAAAAAAAAAAAAAAAAAAAAAAAAAAAAAAAAAAAAAAAAAAAAAAAAAAAAAAAAAAAAAAAAAAAAAQPgY/kkydWAAZ5w9TZdgESkAAAAAAAAAAAAAAAAAAAAAAAAAAAAAAAAAAAAAAAAAAAAAAAAAAAAAAAAAAAAAAAAAAAAAAAAEDUcbycd/wARAAiftHV6wytvOMyAAAAAAAAAAAAAAAAAAAAAAAAAAAAAAAAAAAAAAAAAAAAAAAAAAAAAAAAAAAAAAAAAAAAAAAAAGhY3lY5fPgAE7OY/rfs2MAAAAAAAAAAAAAAAAAAAAAAAAAAAAAAAAAAAAAAAAAAAAAAAAAAAAAAAAAAAAAAAAAAAAAAAAAIgmssLzGcsWREhHKN3MX1r3fVEgAAAAAAAAAAAAAAAAAAAAAAAAAAAAAAAAAAAAAAAAAAAAAAAAAAAAAAAAAAAAAAAAAAAAAAAAies5U5jecyeoAImbFOj1Z2Z4AAAAAAAAAAAAAAAAAAAAAAAAAAAAAAAAAAAAAAAAAAAAAAAAAAAAAAAAAAAAAAAAAAAAAAAAAh1k0Pi0QTxAByWqdPqOcgkAAAAAAAAAAAAAAAAAAAAAAAAAAAAAAAAAAAAAAAAAAAAAAAAAAAAAAAAAAAAAAAAAAAAAAAADi6ifOuDUBABA5LsML0vy7BIAAAAAAAAAAAAAAAAAAAAAAAAAAAAAAAAAAAAAAAAAAAAAAAAAAAAAAAAAAAAAAAAAAAAAAAAIYZy8wY9ZkwADly9BGLfvLmAAAAAAAAAAAAAAAAAAAAAAAAAAAAAAAAAAAAAAAAAAAAAAAAAAAAAAAAAAAAAAAAAAAAAAAAAIj5Z2+U8fRiJAQT2z6YMW6HIAAAAAAAAAAAAAAAAAAAAAAAAAAAAAAAAAAAAAAAAAAAAAAAAAAAAAAAAAAAAAAAAAAAAAAAAAcXwju8mY2riAEDJ7PVBh2px7CJAAAAAAAAAAAAAAAAAAAAAAAAAAAAAAAAAAAAAAAAAAAAAAAAAAAAAAAAAAAAAAAAAAAAAAAAAjVTt8l9PwQAB9Dn6vOiwJ5AAAAAAAAAAAAAAAAAAAAAAAAAAAAAAAAAAAAAAAAAAAAAAAAAAAAAAAAAAAAAAAAAAAAAAAAADi0UyPJvX8shIAj7PZ61OrcEiQAAAAAAAAAAAAAAAAAAAAAAAAAAAAAAAAAAAAAAAAAAAAAAAAAAAAAAAAAAAAAAAAAAAAAAAAQrAzfKfXikAEE7DletDH2VyAAAAAAAAAAAAAAAAAAAAAAAAAAAAAAAAAAAAAAAAAAAAAAAAAAAAAAAAAAAAAAAAAAAAAAAAAERTx3+ZuOOSABu/Z6wOn6/IAAAAAAAAAAAAAAAAAAAAAAAAAAAAAAAAAAAAAAAAAAAAAAAAAAAAAAAAAAAAAAAAAAAAAAAAAOMUOZfnRwAAJsTK9SHHNAAAAAAAAAAAAAAAAAAAAAAAAAAAAAAAAAAAAAAAAAAAAAAAAAAAAAAAAAAAAAAAAAAAAAAAAAB1vOBn0KACJ5EWvnekjhkgAAAAAAAAAAAAAAAAAAAAAAAAAAAAAAAAAAAAAAAAAAAAAAAAAAAAAAAAAAAAAAAAAAAAAAAAOJPTx8wmVT0SAInmRdvf6FOPbEgAAAAAAAAAAAAAAAAAAAAAAAAAAAAAAAAAAAAAAAAAAAAAAAAAAAAAAAAAAAAAAAAAAAAAAAAgjE6/KpkVpMABHaR6BzLrHMAAAAAAAAAAAAAAAAAAAAAAAAAAAAAAAAAAAAAAAAAAAAAAAAAAAAAAAAAAAAAAAAAAAAAAAABxJ+b0+TTJ0OJAETknD0nn2qRyAAAAAAAAAAAAAAAAAAAAAAAAAAAAAAAAAAAAAAAAAAAAAAAAAAAAAAAAAAAAAAAAAAAAAAAAAcR8Pr8kmRqIADPOv1Lk2IJAAAAAAAAAAAAAAAAAAAAAAAAAAAAAAAAAAAAAAAAAAAAAAAAAAAAAAAAAAAAAAAAAAAAAAAAAgRq+N5NOz4QAD7B1esu7cCeQAAAAAAAAAAAAAAAAAAAAAAAAAAAAAAAAADHMh8MfcfDH3Hwx9x8MfcfDH3Hwx9x8MfcfDH3HwOJsLXhsLXhsLXes2ZrQ2VrQ2VrPA2lqg2tqg2tqkG2NPG4NPG4NPk29pnE3VpQ3VpQ3VpPWb00Ub00Ub00XrN+aCN+aCN+aDxLAV4LDV4LDV4LDVxBZCtxZCtxZCteBZqshZekat5zO35MgAjZDq9aZGxkcgAAAAAAAAAAAAAAAAAAAAAAAAAAAAAAAAAAartWrHimYkAAAAAAAAAAAAAAAAAAAAAAAAAAiQAAAiQAAAAAiQRIgkAI286vWOR9olIAAAAAAAAAAAAAAAAAAAAAAAAAAAAAAAAAAAattOqniqQAAAAAAAAAAAAAAAAAAAAAAAAAAAAAAAAAAAAAAAG/mP6x5/RI5gAAAAAAAAAAAAAAAAAAAAAAAAAAAAAAAAAAAA+T9YUEv0UEv0UEv0UEv0UEv0UEv0UEv0UEv0UEv0UEv0UEv0UEv0UEv0UEv0UEv0UEv0UFN+Cgl+igpvwUHF+igl+igl+igV/CgV/CgV/Cg4v0UEv0UEv0UCv4UCv4UCv4UDN+igl+igl+igpvwUEv0UEv0UEv0UCv4UCv4UZc2aIkAAAAAAAAAAAAAAAAAAAAAAAAAAAAAAAAAAAAAAAAAAAAAAAAAAAAAAAAAAAAAAAAAAAAAAAAAAAAAAAAAAAAAAAAAAAAAAAAAAAAAAAAAAAAAAAAAAAAAAAAAAAAAAAAAAAAAAAAAAAAAAAAAAAAAAAAAAAAAAAAAAAAAAAAAAAAAAAAAAAAAAAAAAAAAAAAAAAAAAAAAAAAAAAAAAAAAAAAAAAAAAAAAAAAAAAAAAAAAAAAAAAAAAAAAAAAAAAAAAAAAAAAAAAAAAAAAAAAAP//EACoQAAAGAQQCAgIBBQAAAAAAAAABAwQFBgIWFyBwERUSYBM1FAcQIZCg/9oACAEBAAEFAv8ATi9k2seCMjLp2bnG8I2lJVeXdU61/Dp2fn0INtIyK8o5BH4Oo2359N2Kxowbd+/XkXP9yM8TqNsJ1j0xZLMjCIu3az5fjCxLqWdtETbt+lrPaE4ZJdwo6V4wkI4m3MZFoRLXpa0W3CKxWXzcKcYCvrzjiOjUItt0tabdjHYqZ5KZ8a/W15xZiyQjm/S1stpNCzyPLLjW60rNLtWqTNHpXyLXcfxAzPI+NZqysyo1bJNEelTMiK1XH5DzyrFUUlc0UE26XSuWRYlbLcbo+VUqRyB4J4p49K55Y4Y2u3G/PiQqtPN0McSwLpVVXFHC1WzKSPiQqlQ/KZF46WWWwbpWi0qS6vHwKlUPiC6WcukmiFltKs0pxLA8sqrTybF0s8eIskLJZlZxbjgnkpnU6kTHpd+/Qjm8/YV5xxxSSzWUqtUwjMOlpOTbxTadn3E444t0FHStYqicRh0tKyreIazU04m3PFs3UdK1er4QqfS0zNN4VrLS7iYc8WjRZ6vXK0jCI+Olp2ebwjaTlHEs54sI9xJOa/XEINHpawWJvCIP368k54xkY4lXMFAoQbbpax2NGDQdvFny/GIiHEw6hoZvCtulrJZ0oVJ07Ver8YWEcTbqIiG8O16Ws1qTh0111HSvGDgXE24jIxCJa9LWq2YxeCqua2fGv15accsGCEc26WtdvJgSimSuXGuVpacWZskWCHS1ruBNccsjzPjWqurNKtmyTRHpa2W/4Az8nxq9Vzl80EcG6fSpn4K1XD8g88qvUlJTJFLBBPpXLIscbZbzcjzyqtSykMsMMU8Olc88U8bXbMpDLlU6j/KGOJYF0qusm3Ss9tUlM+Jf5FVp3yBF8S6VcOE2qNotGcyofHEvIqdQ/F0u7dpMkLJZVptbjjieZ1So4s8S6WfP0I5tYbGvOLeeOCeSudWqOEdj0tISKEY2n59ecc+eKSOa6lWqmETj46WlJVvENZqccTbni3bKOlqzV04VLx0tMTLeFbTEy4mXXFmzWfL1usIwiXS01ON4RtKSi8s6PixYrSLiu11GDbl0tPz6MG2kJBeTc8Y+OXlHUDAN4Nv0tYrIjBt3z5aQc+eMXFuJZ1CQTeEbdK+RZLMjCIunar1fjERDmYcw8M3hmnS1otScPgu4Ucq8YOCcTbmLim8S26WtNtwjMVVc11ONerq86vHx6EY26VMWm3YsMc88lMuNdra04uyZIsG3S1tt38cGZ5HxrNYUmlmzZJoj0r58C2XH4g8jyPjWKorL5oN02yXSpmRFbLh8udWqWcpmknijh0rlkWJWu3G6PlU6kb48MCTx6VzzxTwtNuykD5VSoG5GJFhj0qqrgjhabXnK5cfHkVOofkBF4LpVwum1Rs9pUmFOJF5FSqBYDx0s7doskLJaFZtTjjieeVUqBNh46WePUWDexWNacXPjhgamVUqJMC6WkJBCMbT1gcTjjiklmupV6onFJl0tKSjeJazs84nHPFu3UdLVmrJw+HS0tLt4dtNTLiad8WrRV6vWqylCI9K+RNzbeEayss4l3PFixXkHFfriEGh46Wn59CDbSUmvKOeMbGuJV1BV9vBodLWCxIQaD5+vJOeMVFuJd1BwiEI1+j5qYpYe4jx7iPHuI8e4jx7iPHuI8e4jx7iPHuI8e4jx7iPHuI8e4jx7iPHuI8e4jwczHkPeRw95HD3kcPeRw95HD3kcNQRg1BGDUEYNQRg1BGDUEYDsUWQ1JFDUkUNSRQ1JFDUkUNSRQ1REjVESNURI1REjVESNURIO1RBDVkONWQ41ZDjVkONWQ41ZDjV8KNYQw1hDDWEMNYQw1hDDWUIQ1nCDWcINZwg1nCDWcIDukKNbQo1tCjW0KNbQo1tCjW0KDvEMQ1zDjXMONcw41zDjXEODvMOQ13EDXcQNdxAkL8yTbO3ar5xxiIheZdxEQ3hm30ix/o/qkLCOJp1ExDeHbfSbH+j+pwcA4m3MZGt4pr4+lWP9H9SrteWnHDFghHN/pdj/AEf1Gt1lacWZs0WDb6ZIM/57LbQhtoQ20IbaENtCG2hDbQhtoQ20IbaENtCG2hDbQhtoQ20IbaENtCG2hDbQhtoQ20IbaENtCG2hDbQhtoQ20IbaENtCG2hDbQhtoQ20IbaENtCG2hDbQhtoQ20IbaENtCG2hDbQhtoQ20IbaENtCG2hDbQhtoQ20IbaENtCG2hDbQhtoQ20IbaENtCG2hDbQhtoQ20IbaENtCG2hDbQhtoQ20IbaENtCG2hDbQhtoQ20IbaENtCG2hDbQhtoQb/ANOEU1m7ZJol/wABn//EABQRAQAAAAAAAAAAAAAAAAAAALD/2gAIAQMBAT8BQw//xAAUEQEAAAAAAAAAAAAAAAAAAACw/9oACAECAQE/AUMP/8QAQBAAAQICBAwCCAYCAQUAAAAAAQIDAAQRNZPhBRIgISIxMjRBUVJwQpITIzNgYXGho0NykaLB0RRzghBTkKCx/9oACAEBAAY/Av8Aw4t/5jyWvSKoTTFI1dni4+aXDsI4mFTE0rP4U9MJwfhJejqacP8A87O4yyFPqHq2+cKfm1Yyz9P+maEyOElZ9Tbh/ns3wcmlbDf9wp+aXjLV9MgEZiITJYRVQ8PZrPi7MlCCHJs7KOXzhb8ysrcUc5OUluUBFB0l9MNtLcLpQmgqPHsv6KXIXOKGYdMKdfUVuKOcnKDTAxWx7RZ1CEsSqaANZ4nsuZaSIcmzr5IhTjyitajSScoJQMSXSfWOcoSxKpoSPr2XVKyBC5o61dEFbhKlqNJJ45Q8Esk6a4SxKoxG0/XsuqSwav1/4jg8MEqNJOs5QU4CiUSdNXP4CEsyyA22nUB2XVJYKVSr8R0cPlFJNJOUHn6W5NJ2ur5QlmXSENpFAA7LUnMBC5LBSvgt0fxliYm6WpRJ88JaZSENpFAA7LUqNAHEwqSwaqhnU44PFlpm8IJKZYbKD47oCEDFSNQHZYqWaEjWTCpTByqJbxr67stM5hNOKzrbb6oCUigDUOyyluqCEJ1kwqUkTiyo2ldd2WmdwqihOtto8fnAo1dllOPKCEJFJJgsSpKJNPDqy0z2FE6Wtto8Pn2XU9MrDbadZMKaZpbk0nRHV88qhOcw3OYUT67Who+Hsup6ZWENp4mMVNLconZRz+eUEoBUo6gITOYQGNMHYQfB2XU/NLCUJ+sUqOJLp2G8oIaSVrVqAhMzOgLmyNXR2XU/NrxUjUOcYzug0NhvllJaYQXFqNASIS/M+smyM/JPZdT80qjpT1QXZg0JGw305SWpdBW4o5gI9M/QucWM56fl2XL0wdI7COowXppX5UjUnKQxLIK3FnMBGMr1k0oaa+XZcqdOM8fZtjjBfm1Uk6hyyksSiCtxX0jN6yYUNNfZfPpzCthuFPzS8ZxX0yksSiMZXE8oxGtJ5XtHOfZfNQuaUNBH8wt+ZWVuLOc5QYlR+ZXBIgMy6dI7a+Kuy/o2qHJxWyjl8TCnplZW4o5ycoNS4oQNtzgkQGJYfmVxV2XLMuQ5NkaumFOvqK3FHOTlYjIxWhtucoSxKpoSNZ5nsuZWRIVNnWeiFLdJUtRzk5VA0JdO25CWJROIhP17LmUwcoKmfGvogqWoqUc5JysZVLcqnaXz+AhLEqkIbT2XXJ4MXjPHbcHhilRpJ1nKDj1LconWrq+UIZl0BDaBQB2XXI4LVn1OOj+IpOV/kTYKJNJ88JbZSEISMwHZYk5hC5LBatDU46OPyyxMzgLcoNXNcJbaSEoSKAB2WKlGgDWYXJYMVQ1qccHiy0zWEAUyozpSfHASgYqRqA7LFSyEpGsmFSmD1YsqNpXXlpncJpoZ/DbPigBIoA4dllOvqCG0jOowqXkyW5QceK8qiEzuFU5tbbR/mAAKB2WU6+oIbSM5Mehl6W5NJ1dWVQM5hE9hRFKtbbR4fPsup6ZUENoGcmMRHq5VJ0Uc/nlAJFJOoCEzmEk0zB2EHw9l1Pza8RtMf9uWSdBvKCG0lSzqA4wianxjTR1J4I7LqfmlhKR9Yxl6DKdhvllJbZSVrOoCBMzlC5xX7Oy6n5pWbgniox6WYNCBsIGoZSWmElbizQAIDr9Dk2oZz09ly9Mq0vAjiqC9MnN4UcE5SWJVBW4rUBGOuh2aUNJfL5dly4+cZZ2EDWYU/NKpPhHBOUhiVQVuKjguZVtr7LlSiFvq9m3Cn5teMs/TKTLyicZZ48oxWxjPKHrFnj2X4OTSthv+YW/NLx3FZSWJVNJO0rgkRiMZ3Dtr59lylFDk2rZRy+cLfmVlbiznOUGZVP5lHUIDMsM/jXxUey5YlSHJw8OiFOvqK3FHOTlBtkUNDbcOoQliVTQOJ6uy5lZIhc4drkiFOPKK1qOcnjlaOhLp23ISxKJxUD69l1SmD1BUydpQ8EFaySo6ycqk0tyqdtcIl5VGI2nsuqSwYul38RwcIpJpPPK9K9SiTSdJXV8BCWZdAQ2kUADsuuRwWrPqcdHD4CCTnOUH5qluUHHrhLTCQhtIoAHZak5hC5HBS82px0fxlpmZ0FEoDq64ShpIShIzAdliVGgc4VJYNVQwMy3B4stM5hFJEuNhB8cBKBipGoDssVuEJSNZMKlMHnFlhtL68tM7hNNDX4bR8XxgBIoA7LKW6oJQnWTBlpIlEoDnPXlonsKJ0NbbR4/OM3ZZTz6ghtApUTBZl6W5NJzDq+eWmdwonS1ttHh8T2XU9NLDbadZMejbpalEnRTz+eVipFJOoCETuE0+t1oaPh7LrfmVhDaRGalEqnYR/OUEoBUo6gITOYRSFTJ2EHwdl1Pza8VtP1ilw4rAOg2OGUlDKStajmA4wJicAXNkeTsup+bXQOA4qgre0WhsN8spLUugrcUaABAemaHJsjX09ly9NK/KniYL0waEjYRwTlJZlkFbijmAjHdocnFbS+XwHZcuvmlZ9mjqgvzSqTwHAZSWJVOO4qM2nMq219l8dw47x9m3xMKfmlUqOocspMvKIxlHjyjFb03jtuc+y+lpzCthsQqYml4y1fTKSxKppPE8BAaZFLh23Or3IKnCEpGsmN9l7QRvrFoI31i0Eb6xaCN9YtBG+sWgjfWLQRvrFoI31i0Eb6xaCN9YtBG+sWgjfWLQRvrFoI31i0Eb6xaCN9YtI3xnzxvrPnjfWfPG+s+eN9Z88b6z5431nzRvrPmjfWfNG+s+aN9Z80b615o31r9Y31uN9bjfW431uN9bjfW431Eb6iN9RG+ojfURvqIzzqI31H6GN9R+hjfUfoY31H6GN9R+hjfU/oY31PlMb6nymN9T5TG+p8pjfU+UxvqfKY30eRX9Rvos1f1G+izV/Ub6LNX9Rvos1f1G+izV/Ub5T/wV/Ub1+wxvX7DG9fsMb1+wxvX7DG9fsMbwT/wMe3V5DHt1eQx7dXkMe3V5DHtz5DHtlH/gY9ovyx7Rfkj2i/LCv8DGdf8ACCKKIW/MrK3FHOTlJYlhm8a+kQGZYfmVz9yZ7/X7qhqXFCBtucEiAzLJ/Mrifcqe/wBfupiMjFaG24eEJl5VNCRrPP3Lnv8AX7p0DQlk+0chDEqjEQn6+5k9/r90sZVLconaXz+AhDEqgIbTw9zXpbH9H6VNGNRTRFYmxvisTY3xWJsb4rE2N8VibG+KxNjfFYmxvisTY3xWJsb4rE2N8VibG+KxNjfFYmxvisTY3xWJsb4rE2N8VibG+KxNjfFYmxvisTY3xWJsb4rE2N8VibG+KxNjfFYmxvisTY3xWJsb4rE2N8VibG+KxNjfFYmxvisTY3xWJsb4rE2N8VibG+KxNjfFYmxvisTY3xWJsb4rE2N8VibG+KxNjfFYmxvisTY3xWJsb4rH7N8Vj9m+Kx+zfFY/ZvisTY3xWJsb4rE2N8VibG+KxNjfFYmxvisTY3xWJsb4rH7N8Vj9m+Kx+zfFY/Zvisfs3xWJsb4rE2N8VibG+KxNjfFYmxvisTY3xWJsb4rE2N8VibG+KxNjfFYmxvisTY3xWJsb4rE2N8Vj9m+Kx+zfFY/Zvisfs3whT86p1sHSQG6KfrCWpdAbbTqSP/QN/8QALhABAAIBAwMCBQQCAwEAAAAAAQARITFRYSBBcPDxYHGhwdEQgZGxMOFAUJCg/9oACAEBAAE/If8AxwupoYC5qwUtrInfw8UUmNyxqK2g0GxOBBXTnDPezw36xEzkZMrf5R672jsNg/RAUjeGNppS+vCmteGHTEuiPiwaJ+vCIsd+3A6HLUWJ2gqQAvTsu8M+FlqXcGFur/LZLSTv6HSG0FTGjgO8CxTU+XhZdo436oO7HPKXavRVyqj8FWLD94efOTV3YFeFLjrCEXS1Df5xvpl7V6TDG4AYMDY3ZV3+V1e6w08KuIEdKJs/2lmkDWrpO8Ygcwn0IJ4WA1W/PhZcfWGKXhF12OYnZ1o2r0h7w0ilSmQ/p0avCrNG29wKDlE/w/KOFItXNxc56ExiGTlCMvaKTKiqoHhS44XUKztI1bXj8o2bcvfnprEMcA0lPA4lSoTUBArwppEZDWpQEd2boHynEWzoC4EauV4ioB2GgVRtDTPhUUhLRQESMWBwriHTXp1Zl22DQPJ4hsBUBg8LBUC10BHLsQmmT0i6DKukdMFo/wBqNuJQAAFAeFVxFCmXoCOjZDQvdl1p0lkAtdAzBPa31R+E2UYxiV4UWoSy7fgIwewV5QNRb/UhAl0AC1Zek3oDd5gGMVUCvClwM6ZSpVdXWyt4XboC4w8QBasFPFYscnmVAo8KXDfN31WxHrGNTg5eZeuellwUO1lrcwsg2OZVQ08Kg2E9xewRRneBsEe3SMIgtqwOS2WvCTa+/hV0hoaFdxbEua6icD13jr00/FGtlBd0IdoM8yvCjCItgGuxLLnbQGxL6aWTID5g1n0HhZdStIXun+Jpbcbg7EvHRrGXp20G67Q3gJad9jiBvDwpcVLCNDry8RxzO+g2IvS/BHgO7DJBLQytuDwurEi4+XEZsRSOnTqPW3/cME0haGTfwu33UNMLtCkR6WgqFiDKj7pk38LOJXusWs5v4l99TrVlxb/QlYgNi8xgwqvznvMDwotS4XlaPIfzFaoXWr0BbKzK4rxYwGxzBWi7ardgY8KuOImxY1AbfOIeGwtXpCVVTzkBuUoA158LXrxvAjApdh2OYxY60yr0hAgcFynhFaBj8KukWjOMS5ou004hERV1Xv0naG9RTRWxAiED0B4VYbEAtV0Je7sS/h+UUqqq6vTV6REQ2KpOOIJZQ1AeFVqDqGqNBLEByX8DjqVFqqBUr8QZ46FQEDwotawj42igIsxaDhX4lladAXKpzGa5U4DyeIIYVA7eFbiqRLaAiJhSjXK8RekqoKugSv2t3LmDAgKAKDwsm8S+gIufBNC92aulGCo0B3gUBAF/lAaceFXSWT2I+kQovVOeUPSxZ1AtWCtztEeeZo48KrWkNOS17rsSlNoVP1eeo+pQNaoTcwvkPzDIeFVhyDaFytgjq9WJxy+c7uegLjUDodqwiAMDkG3z/QGPClyooCi/YEY6CKw/mLZ0VcLega1YVQbHZwJq08LHKUIGptKAgwDYR16U8LUQKgmDHGDD4VeISQVOyxcyKDobE1dKVgwBobwVQHnNOCU7eFVoh4goHK7uxG3NwdhsS5r+pHEpz2Hdhk28JbfKE08KLGhYOJ+riPkTlexsHSC2O9QNHzDARBhcy4ECvCpixWps5RdWYsWzoC5hcfJPMuSPKHzErd8K3XeD4PGoG7GVgX2sXoqJTYdo/mD3Az5Vuys+FXSYFAI0fzHcEXWqPSFAuzmDg3Yc0uWsrdYPhXDSF6aso/2iGVVVq9QwEMprwcwtIaA78+FlggRbPpZzHCkbV3lv6hcqEg2cKgLpQ1eFnJeA1YGc6z1QYFRyrdsvH6hc7wEl9RlbELyIagPCypQC1cVM0DJHXj8ot69FQMSwOwWHh8pT0YegPCwNDLU1Uf32iL2OI5XpO3MRA1gpW/yhRw0CgPCqXDQmrqAiHVIGH/Tp7wzprLrTbDnk4hxBUAVXhVagtktVASs4Kynl8pfQa5hZgz/MZ1JwX84AAABQHhW85ii2J0BE4wAw84vHQFywBasEvXg9EAAUUGnHhW4K07REtgMuecLddJxTqBasEAXgLOTzCmleFblxISvfiORK6uvLmauio086JasIgFis/wBoG/hV0gPCYO72DvHjM1MDf5x6aKhjWraW73ZLBsczR4VYIAzHqbEQJbjcH89JrBmaHtWD4euuOJ4WvWBcGsOrsRRKKFwbS16AuEMcCuECB3pK8K0gBrQLlRLaONw7EW+ir0iHU4DQN2FKBDH32OPCpZcTgGguTfgiP26mDsRy9FRBC80wd1hjCchmAR48KpZL3QiMz82MKc66cCPSpJEX0d2DgNbGVD4HKedqoD/ghCCCCCCCCCCCCCCCav8AsBnsaey57Lnsuey40/ZzJ9hPZE9kT2RPZE9hTVIfc2e5s9zZ7mz3NiQ/RWelZ6VnpWelZ6VnpWf1oFnqL7T1F9p6i+09RfaeovtOR9W0S9T9J6T+09J/aek/tPSf2npP7R1n7DdTBgwYMBTB+STk+vicn18Tk+vicn18Tk+vicn18RDHyXVJJJJbAY4xD3bPfkt/NiWEFJhbsshKyOkjRchQxuTOdq3MveGnwQf5P9nwXf63UuX0BbH+uFi4C7Dq5l3lfBP1n+z4PC4lfqECMTiYP5lKuZdXuzDT4K+s/wBnweNPRTxSYO2xzCbG078lgU/38F/Xf7PhIIaOnq+pDSLQDV3h8Ge+wwr/AK4BBBBBBBBBBBBBBBBBBBBBBBBBBBBBBBABBBBBBBBBBBBDlQ5UOVDlf4RhBBBBBBDlQ5UOVDlQ5X+cQQQQQQQQAAAAAA5UOVDlQ5ULwxLGdrgT90WgIFf/AAGf/9oADAMBAAIAAwAAABAAAAAAAAAAAAAAAAAAAAAAAAAAAAAAAAAAAAAAAAAAAAAAAAAAAAAAAAAAAAAAAAAAAAAAAAAAAAAAAAAAAAAAAAAAAAAAAAAAAAAAAAAAAAAAAAAAAAAAAAAAAAAAAAAAAAAAAAAAAAAAAAAAAAAAAAAQAAAAAAAAAAAAAAAAAAAAAAAAAAAAAAAAAAAAAAAAAAAAAAAAAAAAAAAAAAAAAAAAAAAAAAAAAAAAAAQjAAAAAAAAAAAAAAAAAAAAAAAAAAAAAAAAAAAAAAAAAAAAAAAAAAAAAAAAAAAAAAAAAAAAAAAAAAAAQSgBAgAAAAAAAAAAAAAAAAAAAAAAAAAAAAAAAAAAAAAAAAAAAAAAAAAAAAAAAAAAAAAAAAAAAAAAAAAQSABADgAAAAAAAAAAAAAAAAAAAAAAAAAAAAAAAAAAAAAAAAAAAAAAAAAAAAAAAAAAAAAAAAAAAAAAAABgAAAygAAAAAAAAAAAAAAAAAAAAAAAAAAAAAAAAAAAAAAAAAAAAAAAAAAAAAAAAAAAAAAAAAAAAAAAAAAgAyygAAAAAAAAAAAAAAAAAAAAAAAAAAAAAAAAAAAAAAAAAAAAAAAAAAAAAAAAAAAAAAAAAAAAAAAABBABRwAAAAAAAAAAAAAAAAAAAAAAAAAAAAAAAAAAAAAAAAAAAAAAAAAAAAAAAAAAAAAAAAAAAAAAAAAASQADCAAAAAAAAAAAAAAAAAAAAAAAAAAAAAAAAAAAAAAAAAAAAAAAAAAAAAAAAAAAAAAAAAAAAAAAAACQiBxRgAAAAAAAAAAAAAAAAAAAAAAAAAAAAAAAAAAAAAAAAAAAAAAAAAAAAAAAAAAAAAAAAAAAAAAAACBAAQzAAAAAAAAAAAAAAAAAAAAAAAAAAAAAAAAAAAAAAAAAAAAAAAAAAAAAAAAAAAAAAAAAAAAAAAAACzAAQhAAAAAAAAAAAAAAAAAAAAAAAAAAAAAAAAAAAAAAAAAAAAAAAAAAAAAAAAAAAAAAAAAAAAAAAAAQwgBTAAAAAAAAAAAAAAAAAAAAAAAAAAAAAAAAAAAAAAAAAAAAAAAAAAAAAAAAAAAAAAAAAAAAAAAAAAASAATgAAAAAAAAAAAAAAAAAAAAAAAAAAAAAAAAAAAAAAAAAAAAAAAAAAAAAAAAAAAAAAAAAAAAAAAAAxhCDhgAAAAAAAAAAAAAAAAAAAAAAAAAAAAAAAAAAAAAAAAAAAAAAAAAAAAAAAAAAAAAAAAAAAAAAAAASyACTAAAAAAAAAAAAAAAAAAAAAAAAAAAAAAAAAAAAAAAAAAAAAAAAAAAAAAAAAAAAAAAAAAAAAAAAABgQAAQwAAAAAAAAAAAAAAAAAAAAAAAAAAAAAAAAAAAAAAAAAAAAAAAAAAAAAAAAAAAAAAAAAAAAAAAABzQATRwAAAAAAAAAAAAAAAAAAAAAAAAAAAAAAAAAAAAAAAAAAAAAAAAAAAAAAAAAAAAAAAAAAAAAAAABhgABQgAAAAAAAAAAAAAAAAAAAAAAAAAAAAAAAAAAAAAAAAAAAAAAAAAAAAAAAAAAAAAAAAAAAAAAAABQCAQyAAAAAAAAAAAAAAAAAAAAAAAAAAAAAAAAAAAAAAAAAAAAAAAAAAAAAAAAAAAAAAAAAAAAAAAAABjwASSgAAAAAAAAAAAAAAAAAAAAAAAAAAAAAAAAAAAAAAAAAAAAAAAAAAAAAAAAAAAAAAAAAAAAAAAAABCAAxAAAAAAAAAAAAAAAAAAAAAAAAAAAAAAAAAAAAAAAAAAAAAAAAAAAAAAAAAAAAAAAAAAAAAAAAABiDACBwAAAAAAAAAAAAAAAAAAAAAAAAAAAAAAAAAAAAAAAAAAAAAAAAAAAAAAAAAAAAAAAAAAAAAAAAATiARCAAAAAAAAAAAAAAAAAAAAAAAAAAAAAAAAAAAAAAAAAAAAAAAAAAAAAAAAAAAAAAAAAAAAAAAAABiQAAyAAAAAAAAAAAAAAAAAAAAAAAAAAAAAAAAAAAAAAAAAAAAAAAAAAAAAAAAAAAAAAAAAAAAAAAAABjAARwAAAAAAAAAAAAAAAAAAAAAAAAAAAAAAAAAAAAAAAAAAAAAAAAAAAAAAAAAAAAAAAAAAAAAAAAABCgBCCAAAAAAAAAAAAAAAAAAAAAAAAAAAAAAAAAAAAAAAAAAAAAAAAAAAAAAAAAAAAAAAAAAAAAAAAACSgBRCgAAAAAAAAAAAAAAAAAAAAAAAAAAAAAAAAAAAAAAAAAAAAAAAAAAAAAAAAAAAAAAAAAAAAAAAARAAAxCAAAAAAAAAAAAAAAAAAAAAAAAAAAAAAAAAAAAAAAAAAAAAAAAAAAAAAAAAAAAAAAAAAAAAAAAATAgBBAAAAAAAAAAAAAAAAAAAAAAAAAAAAAAAAAAAAAAAAAAAAAAAAAAAAAAAAAAAAAAAAAAAAAAAAAAQQgASgAAAAAAAAAAAAAAAAAAAAAAAAAAAAAAAAAAAAAAAAAAAAAAAAAAAAAAAAAAAAAAAAAAAAAAAAASygAAwAAAAAAAAAAAAAAAAAAAAAAAAAAAAAAAAAAAQwwwwwwwgwwgAAAwwwwwgQwwQAAQAAAQwwgAAADTAAhQAAAAAAAAAAAAAAAAAAAAAAAAAAAAAAAAAABCgAAAAAAAAAAAAAAAAAAAAAAAAACAAACAAAAACBDgAhhAAAAAAAAAAAAAAAAAAAAAAAAAAAAAAAAAAAASAAAAAAAAAAAAAAAAAAAAAAAAAAAAAAAAAAAAAAAAAQAAAAAAAAAAAAAAAAAAAAAAAAAAAAAAAAAAAAADDDDDDDDDDDDDDDDCDCBDDDDDBDDDDDDDDCDDDDDBCAAAAAAAAAAAAAAAAAAAAAAAAAAAAAAAAAAAAAAAAAAAAAAAAAAAAAAAAAAAAAAAAAAAAAAAAAAAAAAAAAAAAAAAAAAAAAAAAAAAAAAAAAAAAAAAAAAAAAAAAAAAAAAAAAAAAAAAAAAAAAAAAAAAAAAAAAAAAAAAAAAAAAAAAAAAAAAAAAAAAAAAAAAAAAAAAAAAAAAAAAAAAAAAAAAAAAAAAAAAAAAAAAAAAAAAAAAAAAAAAAAAAAAAAAAAAAAAAAAAAAAAAAAAAAAAAAAAAAD/xAAUEQEAAAAAAAAAAAAAAAAAAACw/9oACAEDAQE/EEMP/8QAFBEBAAAAAAAAAAAAAAAAAAAAsP/aAAgBAgEBPxBDD//EAC0QAAECAwcEAgMBAAMAAAAAAAEAETFBUSAhYXDB8PFxkaGxgdEQYOEwUJCg/9oACAEBAAE/EP8ApwIJ1yg8LdhMyTSCZPALGIP4rGKdpkDC/eh/TSMtKFEAcOMnDIDg6koC7EvAUoB+ABA4EVpnyL1CgWEMmgAwKEA+ofKd1qwKMgLGHAIBXAdyIJ7tqiZkwJmHb0VB7WnKUCgFLJClyrhpC7jWiZwUS+JmyVdo/hV7zgPPQKMZkgWBIT0GYR/S9QLvwmIFyVDPwTvlAU1aQnv2AQsiXEYhIbUFkuUXyiOSw5Ce5MB6qdUhwheSTapVTSsO6Uzb11AIzHJZhEIXERo+/RXsY0Qm9l4On9ebgRTMl7nUwqnFNkoRAuRa4wIIS0u6qqR7iAEaohdYBvI9JtcI8VSoG+SRAEMlCwssBwgYIIT3fCpQsRIrAXqcu6vsEPcUIGhphkqHESxrskgSTBEn+vAfd1oNgJAiOmbZwYJkS9ldE7AAgGSwuk7ghNSTqwxhfu9rUagDXehxxdhmoFp8gZLMU5RqhJT6tyJEtr1HZINGBRplpsinYUUKUwAuhkqw5MzsIAoOuQF46BOJHezxAHPtKKBVogBixkUJjvkqOVQOIJkFdcXDsNwCLeTh/wAxJ7ZJ8IABeErwXntLqmzMlQGOyI5wYioMVsCkRE0EkGwcMncbVAkptMEXueqfPJWGJ72rsA5koZEy4SjMkbgWT22WSDgFF8OBuScl4+KX4PPEq8CjAUczNqcO2BC4KorMB3zUqeSwHYufAoIlFqFuwfWqHJZvbPpiB6igPmMym3kZkoTC5DpMVQvYKlMZ3gKBPhZGtR7wmQC3EBAwAmJmhkoQQcfv4U0GZRSfbAnIJtyykvgMRDAKr200FNCXLIBEclGKO76QvCnpnoAcgEFrN6z1daVC6O6ByjIZLtRFDb9l6rWECgFoNZcAHHn9CaFCJ1HRphkuYQa0GbtYCJKPNh6BZRDLFDoBhxNArrGvA4l9ZLExTKfBHnQpnTwBORIvxEmoOgrkccFezl+SHQBDJUFYitwIK+IknQqkQsg9BHXmBGfhM7XdwJMphmShKIXiju/QL2kr6q8ffAESbDEojoY2PCiT4UQnIOIZnJYgLyLyASJRLP1R5ZCDhEk2rVa2JE9UFvEC0JnHHJYC4gxWakRib2URAj3h1ltxYTrQvDUpl/5EMlkClAAJlH6ngU8KvZaagDUOE/LCQeZ7JrxxEIIBslDI2B4CBVPDtdE1n8inWBfd+ND3oEuldUM9pshIBAEMlAouXL8FEklXINCCPimqhLAkCBodsTSDypE1BIQABghkoxMyMIkiAeOhBSEAizBqJArd3VQRGkFdprAAhkqfwWdIhTjyA8dBaJvUQEZI5dZEaBGdAU1cyWHoe4iEyZL+uAwSJUVm82ACEgE2ZCMamfrksDI7QwQAZk0RSSmgyrq6wE6c0ikAAEwPciRda6IQYclWVrz3AyV2Hq4CupqALBw3486ohcsFhyk9ymlMMyUbBeMPiT90RgnqJ9Uyh2AEjx/aIfU1OAmE7yVOyWH4UHhQFKldp3hiK9bVrC/AaBeUkwmFjPJYOZOmDgXXUxXxZTCvaG7orgmHQBBgXuFY95LyPpoeAlXhveICQCdYRJqSonWnkAhIlMukUwKBMIMlGVXxEOmPlPfYQEiQATrFwLqgMAR5ALEjqBjUFAgNkqGIFyjQRAUWl6xooAIBXJZBS81wnSWiH5Z9QBhQJ+SoRiSqVsJ56BXpnSIszkziUH9ZSC+RmwIVODslidb0KomuQlNOfVIBinWZAR8nneVzzXGJSMlSIJ84NUHr6p9hxEJkou9lwBrkWUxB/KiMyYnJaQFIYgjH+Rko7ZwErIGFUJcgNhMk1dkCAGSwnJgRNSXvXJWoSnmonBUsgYI+ZtAqXSpTI/QIZLQ+igBitURdm9oYrByMkrwaHJ7lBO6aJQAGS1xiMAClyygo0fdX1ZfcTqG3RJQaTQqFGgGGSwY1+RaJLo+tyLnFt3sihSECLshlmAZU1jBXYZgADJUxK7eagCbMeF0mKmFOsMRdiCqwEaMKgUuIQGUMlJSNyZABu5GfC2HUCfcsg8FgvCfUQFaBDyEAyVMWnlwSpXihsJjYSswyEOM4QkFBcNES08kTJaDPdG/gFSVuaaJeilkch9vPAJAKJtREzIPFGyVVl4Z6iTwozNw6jFcSisiCoeYJOGGLcs5LFaZ2i6AjmSvMhcMrUbQ6f0iGCrpPCjviBKAuvyVulLguHQcKPi50Q2NSjGWHimS5IpmgCoguAMbyU3Ja8aHQPQTK7FtmZsgKMm9dQCyAmr5DRv1UVa+SgBFMXV5ODKjM9l49vDaiMXFh8V3x7jZYBDIaonUFAMlwI3EUCwAjS9KCnIBRWervMArHC1/AUUH6R+Zb6IFAF2z6rc+q3Pqtz6rc+q3Pqtz6rc+q3Pqtz6rc+q3Pqtz6rc+q3Pqtz6raVuqG3fa3Dqtw6rcOq3DqgnbXqoCyQQQQRmoCarc2i3NotzaLc2i3NoiBtWCY2fS3P1W5+q3P1W5+q2P1WzDYC1ixYsWJu9BlGNordu3btyLPdg1oePHjx53bgRtrLly5cuWhvjJbZ0W2dFtnRbZ0W/dE9CuxcLYei2Dotw/ScrMASYaK+Umj4DAWYl8qyA0j6C8l+DSP6UAB/wCWf/B/9HfkEjk6xdCx1yAWNTQLzgwHDomFQ/SeB/TnDWA4hslnE4McC8p/hzzJTf0s4H9OE4bA8VtyGfhMnBVHcFHcydEL+op+5K0XzzZDCqSbyqf0xq+8UeIH7olj2q8dXjq8dXjq8dXjq8dXjq8dXjq8dXjq8dXjq8dXjq8dXjq8dXjq8dXjq8dXjq8dXjq8dXjq8dXjq8dXhq8dXjq8dXjq8dXjq8dXjq8dXjq8Vt37777x+Orx1eOrx1eOrx3/AAv33333v8VXjq8dXjq8dXjqgf1V4avDV4avDV4apL9WzvvvvEbW0IxzAzu/8B1e1EB//9k=;" vertex="1" parent="1">
          <mxGeometry x="295" y="108" width="45.87" height="22" as="geometry" />
        </mxCell>
      </root>
    </mxGraphModel>
  </diagram>
</mxfile>
